<svg width="743" height="553" fill="none" xmlns="http://www.w3.org/2000/svg"><path d="M742.163 485.968H0v.371h742.163v-.371zM177.6 501.687h-50.081v.371H177.6v-.371zM116.623 501.865H86.907v.371h29.716v-.371zM449.929 493.909h-140.7v.371h140.7v-.371zM249.04 512.211h-44.856v.371h44.856v-.371zM614.021 499.015H497.249v.371h116.772v-.371zM351.785 419.767H65.176a8.476 8.476 0 01-8.46-8.475V8.402A8.476 8.476 0 0165.176 0h286.609a8.476 8.476 0 018.475 8.475v402.817a8.478 8.478 0 01-8.475 8.475zM65.176.297a8.104 8.104 0 00-8.09 8.104v402.891a8.104 8.104 0 008.09 8.104h286.609a8.12 8.12 0 008.104-8.104V8.402a8.12 8.12 0 00-8.104-8.105H65.176zM672.859 419.767H386.236a8.488 8.488 0 01-8.475-8.475V8.402A8.487 8.487 0 01386.236 0h286.623a8.476 8.476 0 018.446 8.401v402.891a8.475 8.475 0 01-8.446 8.475zM386.236.297a8.119 8.119 0 00-8.104 8.104v402.891a8.12 8.12 0 008.104 8.104h286.623a8.12 8.12 0 008.105-8.104V8.402a8.12 8.12 0 00-8.105-8.105H386.236z" fill="#E0E0E0"/><path d="M625.227 312.866h-37.82v173.102h37.82V312.866z" fill="#E0E0E0"/><path d="M618.043 485.968h7.184v-20.439h-14.709l7.525 20.439z" fill="#F0F0F0"/><path d="M483.89 312.866h-37.821v173.102h37.821V312.866z" fill="#E0E0E0"/><path d="M625.227 312.866H477.611v160.56h147.616v-160.56z" fill="#F0F0F0"/><path d="M553.832 394.801v53.079h65.829v-53.079h-65.829zM483.192 394.801v53.079h65.83v-53.079h-65.83z" fill="#E0E0E0"/><path d="M522.616 400.53h-13.032a20.559 20.559 0 01-14.947-6.442h42.926a20.559 20.559 0 01-14.947 6.442zM593.923 400.53h-13.018a20.6 20.6 0 01-14.962-6.442h42.942a20.625 20.625 0 01-14.962 6.442z" fill="#F0F0F0"/><path d="M553.832 324.948v53.08h65.829v-53.08h-65.829zM483.178 324.963v53.08h65.83v-53.08h-65.83z" fill="#E0E0E0"/><path d="M522.616 330.678h-13.032a20.615 20.615 0 01-14.947-6.427h42.926a20.622 20.622 0 01-14.947 6.427zM593.923 330.678h-13.018a20.643 20.643 0 01-14.962-6.427h42.942a20.682 20.682 0 01-14.962 6.427zM484.795 485.968h-7.184v-20.439h14.725l-7.541 20.439z" fill="#F0F0F0"/><path d="M514.125 285.747c0 6.62 4.602 11.222-2.018 11.222s-21.939-4.602-21.939-11.222a11.977 11.977 0 0111.979-11.978 11.979 11.979 0 0111.978 11.978z" fill="#E0E0E0"/><path d="M534.624 291.462c0 6.605 4.602 11.222-2.018 11.222s-21.998-4.617-21.998-11.222a11.979 11.979 0 1123.957 0h.059z" fill="#E0E0E0"/><path d="M554.262 287.959c0 6.605 4.601 11.222-2.019 11.222s-21.938-4.617-21.938-11.222a11.979 11.979 0 1123.957 0z" fill="#E0E0E0"/><path d="M482.836 289.443s.98 23.364 38.518 23.364c37.539 0 38.504-23.364 38.504-23.364h-77.022z" fill="#E6E6E6"/><path d="M626.801 28.187H436.466v210.626h190.335V28.187zM647.166 21.686h-223.02a1.885 1.885 0 00-1.9 1.885 1.897 1.897 0 001.9 1.9h223.02a1.886 1.886 0 001.885-1.9 1.887 1.887 0 00-1.885-1.885z" fill="#E0E0E0"/><path d="M634.875 28.187H440.236v210.626h194.639V28.187z" fill="#E6E6E6"/><path d="M626.801 238.813H436.466v15.007h190.335v-15.007z" fill="#E0E0E0"/><path d="M648.324 238.813h-194.64v15.007h194.64v-15.007z" fill="#E6E6E6"/><path d="M623.565 227.488V39.483H451.547v188.005h172.018z" fill="#F5F5F5"/><path d="M490.599 227.503l66.364-188.005h31.32l-66.365 188.005h-31.319zM528.643 227.503l66.364-188.005h12.216l-66.364 188.005h-12.216z" fill="#FAFAFA"/><path d="M623.565 227.503V39.498h-1.44v188.005h1.44z" fill="#E0E0E0"/><path d="M451.68 18.302h-19.459v181.414h19.459V18.302z" fill="#EBEBEB"/><path d="M459.25 18.302h-15.155v181.414h15.155V18.302z" fill="#E0E0E0"/><path d="M471.14 18.302h-19.46v181.414h19.46V18.302z" fill="#EBEBEB"/><path d="M478.71 18.302h-15.155v181.414h15.155V18.302z" fill="#E0E0E0"/><path d="M490.599 18.302H471.14v181.414h19.459V18.302zM616.321 18.302h-11.206v181.414h11.206V18.302z" fill="#EBEBEB"/><path d="M620.7 18.302h-8.742v181.414h8.742V18.302z" fill="#E0E0E0"/><path d="M627.528 18.302h-11.207v181.414h11.207V18.302z" fill="#EBEBEB"/><path d="M631.907 18.302h-8.743v181.414h8.743V18.302z" fill="#E0E0E0"/><path d="M638.75 18.302h-11.207v181.414h11.207V18.302z" fill="#EBEBEB"/><path d="M163.825 75.166h-20.276v55.321h20.276v-55.32z" fill="#E6E6E6"/><path d="M115.837 143.148l-6.442 17.575h6.442l39.423-17.575h-39.423z" fill="#F0F0F0"/><path d="M109.395 143.148v17.575l39.438-17.575h-39.438z" fill="#E0E0E0"/><path d="M270.444 143.148l-6.427 17.575h6.427l39.439-17.575h-39.439z" fill="#F0F0F0"/><path d="M264.017 143.148v17.575l39.424-17.575h-39.424zM80.465 143.979h42.882v-13.373H80.465v13.373z" fill="#E0E0E0"/><path d="M336.526 130.606H123.333v13.373h213.193v-13.373z" fill="#F0F0F0"/><path d="M197.594 130.487H148.24l-6.101-67.047h49.354l6.101 67.047z" fill="#E0E0E0"/><path d="M200.146 130.487h-49.339l-6.115-67.047h49.354l6.1 67.047z" fill="#F0F0F0"/><path d="M157.546 123.065l-4.75-52.203h34.511l4.75 52.203h-34.511z" fill="#FAFAFA"/><path d="M220.066 108.712s.905 21.775 35.891 21.775c34.985 0 35.891-21.775 35.891-21.775h-71.782z" fill="#E6E6E6"/><path d="M183.7 481.159h-54.074a5.72 5.72 0 01-5.546-3.937 5.71 5.71 0 012.147-6.454l.876 1.188a4.241 4.241 0 00.048 6.833 4.24 4.24 0 002.475.811H183.7a12.512 12.512 0 0012.498-12.498V307.077a13.624 13.624 0 0113.596-13.611h16.18v1.484h-16.18a12.145 12.145 0 00-12.112 12.127v160.099a14.009 14.009 0 01-13.982 13.983zM364.327 296.524h-97.386v189.444h97.386V296.524z" fill="#E0E0E0"/><path d="M367.994 296.524h-8.03v189.444h8.03V296.524z" fill="#EBEBEB"/><path d="M176.828 310.729h193.645v-14.205H176.828v14.205z" fill="#EBEBEB"/><path d="M175.67 296.524H78.283v189.444h97.387V296.524z" fill="#E0E0E0"/><path d="M179.321 296.524h-8.03v189.444h8.03V296.524z" fill="#EBEBEB"/><path d="M145.508 239.971h90.752l13.151 53.584h-90.752l-13.151-53.584zM158.66 293.555l.371 2.969h90.751l-.356-2.969H158.66z" fill="#E0E0E0"/><path d="M148.314 239.971h90.752l13.151 53.584h-90.752l-13.151-53.584z" fill="#F0F0F0"/><path d="M163.379 291.106l-11.948-48.686h85.705l11.948 48.686h-85.705z" fill="#FAFAFA"/><path d="M185.11 293.555l.357 2.969h99.939l-.371-2.969H185.11zM114.397 283.016s-13.359-23.021 5.18-41.353c0 0 4.824 3.162 4.75 7.422-.074 4.26-5.165 5.314-4.082 8.906 1.084 3.592 5.938 7.006 2.761 9.93-3.176 2.924.505 5.521.297 9.114-.208 3.592-8.906 5.981-8.906 5.981z" fill="#F0F0F0"/><path d="M115.406 285.124s5.418-26.065-17.945-37.613c0 0-3.592 4.527-2.182 8.52 1.41 3.993 6.59 3.399 6.664 7.11.075 3.711-3.414 8.505.52 10.287 3.933 1.781 1.247 5.402 2.583 8.727 1.335 3.325 10.36 2.969 10.36 2.969z" fill="#F0F0F0"/><path d="M94.997 279.35s.445 17.174 17.47 17.174 17.426-17.174 17.426-17.174H94.997z" fill="#E0E0E0"/><path d="M335.072 485.968h-3.385l-9.692-47.736-1.692-8.357-10.569-51.951h-40.507l-21.953 108.044h-3.384l22.368-110.107a1.63 1.63 0 011.618-1.321h43.209a1.634 1.634 0 011.618 1.321l9.277 45.687 1.707 8.357 11.385 56.063z" fill="#EBEBEB"/><path d="M400.1 485.968h-3.399l-21.953-108.103h-40.493l-10.568 52.04-1.692 8.327-9.693 47.736h-3.384l11.385-56.093 1.677-8.327 9.292-45.687a1.629 1.629 0 011.618-1.321h43.209a1.657 1.657 0 011.632 1.321L400.1 485.968z" fill="#EBEBEB"/><path d="M300.264 376.202h74.424a26.107 26.107 0 0026.08-25.575l2.776-113.105a19.032 19.032 0 00-19-19.326h-46.652a19.027 19.027 0 00-18.896 16.862l-18.732 141.144z" fill="#E6E6E6"/><path d="M340.846 376.202h-79.308a3.711 3.711 0 01-3.711-3.711v-.356a10.198 10.198 0 0110.198-10.197h72.821v14.264z" fill="#E6E6E6"/><path d="M371.081 553c158.946 0 287.796-7.523 287.796-16.802 0-9.28-128.85-16.803-287.796-16.803-158.945 0-287.795 7.523-287.795 16.803 0 9.279 128.85 16.802 287.795 16.802z" fill="#F5F5F5"/><path d="M410.327 171.915l.965.816c.356.312.757.608 1.143.905.771.609 1.484 1.218 2.374 1.796 1.604 1.173 3.31 2.242 5.017 3.31a75.308 75.308 0 0010.791 5.507 82.277 82.277 0 0011.474 3.919c.98.267 1.989.445 2.969.668l1.484.326c.312 0 0 0 0 .075a1.637 1.637 0 00-.564.252c-.133.134-.133.134-.074.104.294-.435.523-.91.683-1.41.527-1.713.85-3.481.965-5.27.178-1.944.237-3.992.222-6.056 0-4.141-.326-8.371-.653-12.616-.326-4.246-.846-8.506-1.395-12.78a574.979 574.979 0 00-1.796-12.766l5.581-1.276a236.5 236.5 0 015.937 25.768c.778 4.421 1.318 8.88 1.618 13.359a67.07 67.07 0 01.163 6.946 32.328 32.328 0 01-.964 7.585 14.698 14.698 0 01-2.019 4.453 9.69 9.69 0 01-2.36 2.39 8.655 8.655 0 01-3.548 1.484 9.976 9.976 0 01-3.325 0l-1.706-.282c-1.143-.193-2.301-.341-3.429-.594a83.535 83.535 0 01-13.359-3.829 85.433 85.433 0 01-12.543-6.026c-2.004-1.203-3.963-2.464-5.863-3.845-.95-.683-1.885-1.484-2.82-2.137-.46-.386-.92-.757-1.38-1.173-.461-.416-.891-.757-1.485-1.321l7.897-8.282z" fill="#E4897B"/><path d="M394.192 165.161c16.327-2.212 29.449 10.954 29.449 10.954l-14.933 23.037s-16.001-10.242-18.821-17.218c-2.909-7.259-4.052-15.69 4.305-16.773z" fill="#216DE0"/><path opacity=".6" d="M394.192 165.161c16.327-2.212 29.449 10.954 29.449 10.954l-14.933 23.037s-16.001-10.242-18.821-17.218c-2.909-7.259-4.052-15.69 4.305-16.773z" fill="#FAFAFA"/><path d="M444.065 140.699l-5.418-10.865 14.205-.119s.282 7.585-3.31 11.875l-5.477-.891z" fill="#E4897B"/><path d="M441.171 118.152l10.568 1.885 1.113 9.678-14.205.119 2.524-11.682zM336.452 523.774l13.299 1.276 9.203-31.23-13.3-1.291-9.202 31.245zM251.89 477.582l9.856 9.262 21.285-23.393-9.856-9.262-21.285 23.393z" fill="#E4897B"/><path d="M266.302 482.406l-7.421-13.359a1.085 1.085 0 00-1.336-.49l-11.415 4.334a2.192 2.192 0 00-1.213 1.31 2.207 2.207 0 00.16 1.778c2.657 4.601 4.185 6.694 7.421 12.557 2.004 3.622 5.938 11.875 8.684 16.892 2.746 5.017 7.837 2.508 7.139.193-3.176-10.391-2.568-16.224-1.677-20.781a3.565 3.565 0 00-.342-2.434zM351.31 520.998h-16.12a1.322 1.322 0 00-1.262.98l-3.518 12.75a2.027 2.027 0 00.35 1.77 2.029 2.029 0 001.625.783h37.123c5.937 0 7.124-5.937 4.69-6.501-10.925-2.405-17.233-5.744-20.602-8.906a3.356 3.356 0 00-2.286-.876z" fill="#263238"/><path d="M358.954 493.82l-4.75 16.105h-13.685l5.12-17.382 13.315 1.277zM273.16 454.203l9.871 9.248-10.984 12.053-9.856-9.248 10.969-12.053z" fill="#CE6F64"/><path d="M410.282 155.943c-.104-10.791-9.871-14.561-9.871-14.561s12.216-23.126 5.937-38.474c-6.278-15.348-26.97-18.05-33.531-10.88-11.533-.49-15.199 16.075-15.199 16.075s-9.648 1.618-12.246 8.639c-2.597 7.021 5.314 14.932 5.314 14.932s-11.014 1.485-15.066 9.96c-4.052 8.476-1.558 19.727 10.613 29.434 17.693 14.102 50.215-3.592 50.215-3.592s13.953.876 13.834-11.533z" fill="#263238"/><path d="M408.189 166.675s5.938 2.597-13.893 80.925l-54.92-4.764c2.85-22.265 4.082-36.099-2.642-82.944a161.75 161.75 0 0123.616-1.054 176.81 176.81 0 0124.966 2.152 235.345 235.345 0 0122.873 5.685z" fill="#216DE0"/><path opacity=".6" d="M408.189 166.675s5.938 2.597-13.893 80.925l-54.92-4.764c2.85-22.265 4.082-36.099-2.642-82.944a161.75 161.75 0 0123.616-1.054 176.81 176.81 0 0124.966 2.152 235.345 235.345 0 0122.873 5.685z" fill="#FAFAFA"/><path d="M393.954 162.845a174.077 174.077 0 00-8.757-1.855 176.815 176.815 0 00-24.966-2.167c-2.865-.104-5.73-.104-8.417 0l1.841 3.503c.327.623 8.164 15.244 23.052 23.541l4.096 2.286 3.815-2.716c9.618-6.873 11.043-15.808 9.336-22.592z" fill="#FAFAFA"/><path d="M365.144 130.932c.876 8.179 1.172 23.037-4.898 27.906 0 0 6.946 13.195 20.097 20.513 11.637-8.282 4.869-18.361 4.869-18.361-8.772-2.969-7.971-9.529-5.937-15.645l-14.131-14.413z" fill="#E4897B"/><path d="M370.918 136.81l8.401 8.535a25.987 25.987 0 00-1.158 4.364c-3.369-.787-8.268-4.305-8.327-7.926a14.584 14.584 0 011.084-4.973z" fill="#CE6F64"/><path d="M364.787 112.378c-1.617 13.359-2.582 19.015 2.865 27.045 8.194 12.052 24.996 11.102 30.562-1.485 5.017-11.37 6.814-31.349-5.195-38.993a18.389 18.389 0 00-24.935 4.799 18.387 18.387 0 00-3.297 8.634z" fill="#E4897B"/><path d="M375.148 95.917c10.316 2.672.119 34.051-16.328 24.952 0 0 .742-13.255 5.314-18.881a17.07 17.07 0 0111.014-6.07z" fill="#263238"/><path d="M374.05 97.654c4.453 7.243 37.479 20.973 26.376 5.388-11.103-15.585-26.376-5.388-26.376-5.388z" fill="#263238"/><path d="M360.542 123.941a9.919 9.919 0 002.36 7.155c2.286 2.597 5.299 1.024 6.249-2.123.846-2.82.683-7.57-2.36-9.025a4.454 4.454 0 00-6.249 3.993z" fill="#E4897B"/><path d="M394.236 247.6s18.599 82.291 6.19 140.299c-8.312 38.859-38.311 117.35-38.311 117.35l-23.452-.593s22.695-82.38 27.401-114.768c8.03-55.425-12.083-145.776-12.083-145.776l40.255 3.488z" fill="#263238"/><path d="M372.788 264.21l-11.726 18.495a565.99 565.99 0 016.709 66.245c16.491-29.523 8.683-69.11 5.017-84.74z" fill="#263238"/><path d="M364.045 506.467l-28.974-.743 1.678-8.891 31.631 1.499-4.335 8.135z" fill="#216DE0"/><path opacity=".6" d="M364.045 506.467l-28.974-.743 1.678-8.891 31.631 1.499-4.335 8.135z" fill="#FAFAFA"/><path d="M382.213 246.71s-10.909 87.278-34.569 134.925c-19.104 38.429-70.075 93.349-70.075 93.349l-13.033-13.433s34.436-59.536 48.641-85.111c34.823-62.683 6.353-110.508 26.095-133.59l42.941 3.86z" fill="#263238"/><path d="M278.875 476.706l-16.833-16.402 5.596-7.6 18.332 18.955-7.095 5.047z" fill="#216DE0"/><path opacity=".6" d="M278.875 476.706l-16.833-16.402 5.596-7.6 18.332 18.955-7.095 5.047z" fill="#FAFAFA"/><path d="M338.708 239.54l-2.895 4.706c-.237.371.193.801.817.846l57.666 4.987c.504 0 .935-.163.994-.475l.921-4.869c0-.341-.342-.668-.891-.712l-55.677-4.824a1.007 1.007 0 00-.935.341z" fill="#216DE0"/><path opacity=".3" d="M338.708 239.54l-2.895 4.706c-.237.371.193.801.817.846l57.666 4.987c.504 0 .935-.163.994-.475l.921-4.869c0-.341-.342-.668-.891-.712l-55.677-4.824a1.007 1.007 0 00-.935.341z" fill="#000"/><path d="M345.655 246.398l-1.485-.134c-.297 0-.504-.193-.475-.386l1.262-6.323c0-.193.312-.326.608-.297l1.485.134c.297 0 .504.193.475.386l-1.247 6.323c-.059.208-.327.297-.623.297zM390.066 250.257l-1.485-.133c-.297 0-.504-.193-.475-.386l1.262-6.338c0-.178.312-.312.609-.282l1.484.133c.297 0 .505.193.475.371l-1.247 6.338c-.059.193-.312.312-.623.297zM367.86 248.328l-1.484-.119c-.297 0-.505-.208-.475-.386l1.261-6.338c0-.178.312-.312.609-.282l1.484.119c.297 0 .505.207.475.386l-1.246 6.338c-.06.178-.372.311-.624.282zM384.187 119.755c-.193 1.069.223 2.049.921 2.182.697.134 1.484-.638 1.632-1.721.149-1.084-.207-2.064-.92-2.182-.712-.119-1.38.712-1.633 1.721zM396.314 121.982c-.193 1.069.223 2.048.921 2.182.697.133 1.484-.638 1.632-1.722.149-1.084-.207-2.063-.92-2.182-.712-.119-1.365.638-1.633 1.722z" fill="#263238"/><path d="M397.695 120.23l2.716-.267s-1.692 1.752-2.716.267z" fill="#263238"/><path d="M392.812 123.199a29.683 29.683 0 002.597 7.585 4.714 4.714 0 01-3.978 0l1.381-7.585z" fill="#DE5753"/><path d="M386.919 134.346a9.16 9.16 0 01-6.798-4.972.267.267 0 01.148-.342.26.26 0 01.2-.006.26.26 0 01.142.14 8.719 8.719 0 006.397 4.646.267.267 0 110 .534h-.089zM381.293 111.324a.529.529 0 01-.52-.694.532.532 0 01.193-.27 6.263 6.263 0 015.656-1.143.524.524 0 01.305.273.533.533 0 01-.085.589.523.523 0 01-.37.177.523.523 0 01-.207-.03 5.181 5.181 0 00-4.645.98.597.597 0 01-.327.118zM403.261 117.885a.55.55 0 01-.415-.193 5.252 5.252 0 00-4.305-2.033.55.55 0 01-.594-.475.516.516 0 01.115-.391.51.51 0 01.36-.188 6.254 6.254 0 015.255 2.404.55.55 0 010 .757.592.592 0 01-.416.119z" fill="#263238"/><path d="M340.786 179.603a133.288 133.288 0 01-7.422 12.884c-2.671 4.097-5.492 8.105-8.535 11.964a128.392 128.392 0 01-9.87 11.058c-1.811 1.707-3.578 3.444-5.522 5.047l-1.484 1.217-.357.297-.475.371c-.313.255-.64.493-.979.713a18.272 18.272 0 01-4.364 2.196 22.264 22.264 0 01-9.04.995 35.094 35.094 0 01-8.015-1.766 62.422 62.422 0 01-13.641-6.724 125.748 125.748 0 01-22.473-18.614l3.949-4.141c3.547 2.85 7.288 5.685 11.117 8.253a114.118 114.118 0 0011.697 7.184 61.723 61.723 0 0012.112 5.061c4.008 1.114 8.03 1.307 10.806.149a11.87 11.87 0 004.111-2.969c1.648-1.484 3.177-3.132 4.735-4.735 3.043-3.31 5.863-6.857 8.639-10.39 2.776-3.533 5.284-7.422 7.719-11.281 1.232-1.93 2.404-3.889 3.562-5.848 1.158-1.96 2.271-4.023 3.236-5.863l10.494 4.942z" fill="#E4897B"/><path d="M256.313 196.866l-5.284-10.925-8.787 11.163s5.818 4.853 11.474 4.675l2.597-4.913zM245.255 182.75l-4.973 9.515 1.96 4.839 8.787-11.163-5.774-3.191z" fill="#E4897B"/><path d="M336.615 159.892c-6.739 1.187-16.194 20.528-16.194 20.528l18.509 16.728s11.994-16.105 11.281-24.892c-.608-7.496-5.017-13.878-13.596-12.364z" fill="#216DE0"/><path opacity=".6" d="M336.615 159.892c-6.739 1.187-16.194 20.528-16.194 20.528l18.509 16.728s11.994-16.105 11.281-24.892c-.608-7.496-5.017-13.878-13.596-12.364z" fill="#FAFAFA"/><path d="M268.9 489.575a1.48 1.48 0 01-.519-.089c-1.618-.534-2.672-3.518-3.162-5.255a.27.27 0 01.089-.282.295.295 0 01.148-.039c.053 0 .104.013.149.039.49.253 4.794 2.568 4.928 4.26a.993.993 0 01-.46.95 1.926 1.926 0 01-1.173.416zm-2.969-4.869c.743 2.39 1.707 3.964 2.628 4.275a1.264 1.264 0 001.217-.282.485.485 0 00.237-.475c-.089-1.039-2.612-2.686-4.096-3.518h.014z" fill="#216DE0"/><path d="M269.568 485.374a9.643 9.643 0 01-4.231-.994.24.24 0 01-.133-.223c0-.049.014-.098.04-.14a.273.273 0 01.108-.097c.134 0 3.548-1.945 5.388-1.292a1.595 1.595 0 01.995.95 1.066 1.066 0 01-.238 1.321 3.108 3.108 0 01-1.929.475zm-3.503-1.217c1.484.624 4.289 1.009 5.091.327.134-.104.252-.297.089-.713a1.085 1.085 0 00-.683-.638c-1.261-.445-3.532.549-4.497 1.024zM358.464 523.611a21.899 21.899 0 01-4.453-.564.27.27 0 01-.208-.238.252.252 0 01.149-.267c.668-.312 6.501-2.969 7.985-2.019a.897.897 0 01.386.831 2.015 2.015 0 01-.801 1.485 5.347 5.347 0 01-3.058.772zm-3.473-.921c1.736.327 4.943.742 6.264-.252.174-.131.318-.298.421-.49.102-.193.161-.405.172-.623a.383.383 0 00-.148-.356c-.831-.565-4.29.653-6.709 1.721z" fill="#216DE0"/><path d="M354.13 523.046a.238.238 0 01-.178 0 .279.279 0 01-.089-.267c0-.237 1.395-6.011 4.556-5.64.802.089 1.01.49 1.054.801.208 1.485-3.488 4.453-5.239 5.151l-.104-.045zm4.007-5.447c-2.033 0-3.206 3.354-3.606 4.705 1.914-1.009 4.542-3.414 4.453-4.349 0-.074 0-.282-.579-.341l-.268-.015z" fill="#216DE0"/><path d="M385.509 118.034l2.716-.282s-1.692 1.781-2.716.282z" fill="#263238"/><path opacity=".6" d="M273.843 33.442l-43.506 281.235 244.795 37.821 43.506-281.25-244.795-37.806zm100.578 159.966a57.476 57.476 0 01-45.192-76.522 57.475 57.475 0 0151.563-37.697 57.47 57.47 0 0154.551 33.226 57.473 57.473 0 01-60.922 80.993z" fill="#216DE0"/><path d="M467.74 341.825h-.371l-245.166-37.984v-.371l43.624-281.561h.357L511.35 59.893v.37l-43.61 281.562zm-244.691-38.592l244.068 37.746 43.387-280.537-244.068-37.687-43.387 280.478z" fill="#216DE0" opacity=".3"/><path d="M383.237 196.317a59.605 59.605 0 01-47.427-23.539 59.607 59.607 0 019.584-82.104 59.61 59.61 0 0197.439 48.361 59.61 59.61 0 01-59.596 57.282zm-8.475-5.106a55.23 55.23 0 0063.614-56.954 55.235 55.235 0 00-68.262-51.29 55.233 55.233 0 00-41.5 45.205 55.305 55.305 0 0046.148 63.039z" fill="#FAFAFA"/><path d="M327.135 210.807l-53.923-8.338-1.874 12.117 53.923 8.338 1.874-12.117z" fill="#216DE0"/><path opacity=".6" d="M327.135 210.807l-53.923-8.338-1.874 12.117 53.923 8.338 1.874-12.117z" fill="#FAFAFA"/><path d="M370.719 217.549l-36.481-5.641-1.874 12.116 36.482 5.641 1.873-12.116z" fill="#216DE0"/><path opacity=".6" d="M370.719 217.549l-36.481-5.641-1.874 12.116 36.482 5.641 1.873-12.116z" fill="#FAFAFA"/><path d="M464.4 257.173l-194.994-30.152-1.873 12.117 194.994 30.152 1.873-12.117zM363.976 267.355l-97.133-14.717-1.839 12.138 97.133 14.717 1.839-12.138zM443.848 280.375l-64.866-10.031-1.873 12.117 64.866 10.03 1.873-12.116zM417.333 302.662l-155.887-24.105-1.873 12.117 155.886 24.104 1.874-12.116z" fill="#FAFAFA"/><path d="M521.25 352.497h-1.484a44.315 44.315 0 00-1.351-10.924l1.484-.356a45.67 45.67 0 011.351 11.28zm-5.818-19.177a45.069 45.069 0 00-14.354-17.159l.861-1.202a46.666 46.666 0 0114.843 17.693l-1.35.668z" fill="#216DE0"/><path opacity=".6" d="M521.25 352.497h-1.484a44.315 44.315 0 00-1.351-10.924l1.484-.356a45.67 45.67 0 011.351 11.28zm-5.818-19.177a45.069 45.069 0 00-14.354-17.159l.861-1.202a46.666 46.666 0 0114.843 17.693l-1.35.668z" fill="#FAFAFA"/><path d="M475.132 311.575a40.926 40.926 0 00-28.937 69.859 40.917 40.917 0 0044.597 8.871 40.92 40.92 0 0025.263-37.807 40.924 40.924 0 00-40.923-40.923zm0 76.546a35.624 35.624 0 11.002-71.245 35.624 35.624 0 01-.002 71.245z" fill="#216DE0"/><path opacity=".6" d="M475.132 311.575a40.926 40.926 0 00-28.937 69.859 40.917 40.917 0 0044.597 8.871 40.92 40.92 0 0025.263-37.807 40.924 40.924 0 00-40.923-40.923zm0 76.546a35.624 35.624 0 11.002-71.245 35.624 35.624 0 01-.002 71.245z" fill="#FAFAFA"/><path d="M475.132 388.106c19.667 0 35.609-15.942 35.609-35.608 0-19.667-15.942-35.609-35.609-35.609-19.666 0-35.609 15.942-35.609 35.609 0 19.666 15.943 35.608 35.609 35.608z" fill="#216DE0"/><path opacity=".2" d="M475.132 388.106c19.667 0 35.609-15.942 35.609-35.608 0-19.667-15.942-35.609-35.609-35.609-19.666 0-35.609 15.942-35.609 35.609 0 19.666 15.943 35.608 35.609 35.608z" fill="#000"/><path d="M469.596 375.03l-20.9-20.9 5.255-5.239 15.645 15.644 26.732-26.732 5.24 5.254-31.972 31.973z" fill="#FAFAFA"/></svg>