<svg width="743" height="553" viewBox="0 0 743 553" fill="none" xmlns="http://www.w3.org/2000/svg">
<path d="M742.163 485.968H0V486.339H742.163V485.968Z" fill="#E0E0E0"/>
<path d="M177.6 501.687H127.519V502.058H177.6V501.687Z" fill="#E0E0E0"/>
<path d="M116.623 501.865H86.9072V502.236H116.623V501.865Z" fill="#E0E0E0"/>
<path d="M449.929 493.909H309.229V494.28H449.929V493.909Z" fill="#E0E0E0"/>
<path d="M249.04 512.211H204.184V512.582H249.04V512.211Z" fill="#E0E0E0"/>
<path d="M614.021 499.015H497.249V499.386H614.021V499.015Z" fill="#E0E0E0"/>
<path d="M351.785 419.767H65.1765C62.9312 419.763 60.7792 418.868 59.193 417.279C57.6067 415.69 56.7158 413.537 56.7158 411.292V8.40128C56.7354 6.16889 57.6349 4.03436 59.2191 2.46134C60.8032 0.888306 62.944 0.0038242 65.1765 0H351.785C354.033 0 356.188 0.892952 357.778 2.48242C359.367 4.07188 360.26 6.22765 360.26 8.47549V411.292C360.26 413.539 359.367 415.695 357.778 417.285C356.188 418.874 354.033 419.767 351.785 419.767ZM65.1765 0.296866C63.0296 0.300798 60.972 1.15639 59.4554 2.67583C57.9387 4.19528 57.0869 6.25442 57.0869 8.40128V411.292C57.0869 413.438 57.9387 415.498 59.4554 417.017C60.972 418.536 63.0296 419.392 65.1765 419.396H351.785C353.933 419.392 355.992 418.537 357.511 417.018C359.03 415.499 359.885 413.44 359.889 411.292V8.40128C359.885 6.25306 359.03 4.19395 357.511 2.67493C355.992 1.1559 353.933 0.30079 351.785 0.296866H65.1765Z" fill="#E0E0E0"/>
<path d="M672.859 419.767H386.236C383.99 419.763 381.836 418.869 380.248 417.28C378.659 415.692 377.765 413.538 377.761 411.292V8.40128C377.784 6.16754 378.687 4.03303 380.274 2.46041C381.86 0.887788 384.002 0.00378249 386.236 0H672.859C675.089 0.00772516 677.226 0.893933 678.807 2.46654C680.388 4.03916 681.286 6.17146 681.305 8.40128V411.292C681.305 413.534 680.416 415.686 678.833 417.274C677.25 418.863 675.102 419.759 672.859 419.767ZM386.236 0.296866C384.088 0.30079 382.029 1.1559 380.51 2.67493C378.991 4.19395 378.136 6.25306 378.132 8.40128V411.292C378.136 413.44 378.991 415.499 380.51 417.018C382.029 418.537 384.088 419.392 386.236 419.396H672.859C675.008 419.392 677.067 418.537 678.586 417.018C680.105 415.499 680.96 413.44 680.964 411.292V8.40128C680.96 6.25306 680.105 4.19395 678.586 2.67493C677.067 1.1559 675.008 0.30079 672.859 0.296866H386.236Z" fill="#E0E0E0"/>
<path d="M625.227 312.866H587.407V485.968H625.227V312.866Z" fill="#E0E0E0"/>
<path d="M618.043 485.968H625.227V465.529H610.518L618.043 485.968Z" fill="#F0F0F0"/>
<path d="M483.89 312.866H446.069V485.968H483.89V312.866Z" fill="#E0E0E0"/>
<path d="M625.227 312.866H477.611V473.426H625.227V312.866Z" fill="#F0F0F0"/>
<path d="M553.832 394.801V447.88H619.661V394.801H553.832Z" fill="#E0E0E0"/>
<path d="M483.192 394.801V447.88H549.022V394.801H483.192Z" fill="#E0E0E0"/>
<path d="M522.616 400.53H509.584C506.785 400.53 504.016 399.958 501.446 398.85C498.876 397.743 496.559 396.122 494.637 394.088H537.563C535.641 396.122 533.324 397.743 530.754 398.85C528.184 399.958 525.415 400.53 522.616 400.53Z" fill="#F0F0F0"/>
<path d="M593.923 400.53H580.905C578.104 400.53 575.333 399.958 572.761 398.851C570.188 397.743 567.868 396.123 565.943 394.088H608.885C606.959 396.121 604.639 397.741 602.067 398.848C599.494 399.956 596.723 400.528 593.923 400.53Z" fill="#F0F0F0"/>
<path d="M553.832 324.948V378.028H619.661V324.948H553.832Z" fill="#E0E0E0"/>
<path d="M483.178 324.963V378.043H549.008V324.963H483.178Z" fill="#E0E0E0"/>
<path d="M522.616 330.678H509.584C506.787 330.677 504.019 330.106 501.449 329.001C498.88 327.896 496.562 326.28 494.637 324.251H537.563C535.638 326.28 533.32 327.896 530.751 329.001C528.181 330.106 525.413 330.677 522.616 330.678Z" fill="#F0F0F0"/>
<path d="M593.923 330.678H580.905C578.106 330.677 575.336 330.107 572.764 329.002C570.192 327.897 567.871 326.28 565.943 324.251H608.885C606.956 326.279 604.635 327.894 602.063 328.999C599.491 330.104 596.722 330.675 593.923 330.678Z" fill="#F0F0F0"/>
<path d="M484.795 485.968H477.611V465.529H492.336L484.795 485.968Z" fill="#F0F0F0"/>
<path d="M514.125 285.747C514.125 292.367 518.727 296.969 512.107 296.969C505.487 296.969 490.168 292.367 490.168 285.747C490.168 282.57 491.43 279.524 493.677 277.277C495.923 275.031 498.97 273.769 502.147 273.769C505.324 273.769 508.371 275.031 510.617 277.277C512.863 279.524 514.125 282.57 514.125 285.747Z" fill="#E0E0E0"/>
<path d="M534.624 291.462C534.624 298.067 539.226 302.684 532.606 302.684C525.986 302.684 510.608 298.067 510.608 291.462C510.608 288.285 511.87 285.238 514.116 282.992C516.363 280.746 519.41 279.484 522.586 279.484C525.763 279.484 528.81 280.746 531.056 282.992C533.303 285.238 534.565 288.285 534.565 291.462H534.624Z" fill="#E0E0E0"/>
<path d="M554.262 287.959C554.262 294.564 558.863 299.181 552.243 299.181C545.623 299.181 530.305 294.564 530.305 287.959C530.305 284.782 531.567 281.735 533.813 279.489C536.06 277.243 539.106 275.981 542.283 275.981C545.46 275.981 548.507 277.243 550.753 279.489C553 281.735 554.262 284.782 554.262 287.959Z" fill="#E0E0E0"/>
<path d="M482.836 289.443C482.836 289.443 483.816 312.807 521.354 312.807C558.893 312.807 559.858 289.443 559.858 289.443H482.836Z" fill="#E6E6E6"/>
<path d="M626.801 28.1874H436.466V238.813H626.801V28.1874Z" fill="#E0E0E0"/>
<path d="M647.166 21.686H424.146C423.897 21.684 423.651 21.7313 423.42 21.8252C423.19 21.919 422.98 22.0576 422.803 22.2328C422.627 22.4081 422.487 22.6165 422.391 22.8462C422.295 23.0759 422.246 23.3223 422.246 23.5711C422.246 24.075 422.446 24.5582 422.803 24.9145C423.159 25.2708 423.642 25.471 424.146 25.471H647.166C647.415 25.471 647.661 25.4218 647.891 25.3261C648.12 25.2304 648.329 25.0903 648.504 24.9136C648.679 24.737 648.818 24.5274 648.912 24.297C649.006 24.0666 649.053 23.8199 649.051 23.5711C649.051 23.0711 648.852 22.5916 648.499 22.2381C648.145 21.8846 647.666 21.686 647.166 21.686Z" fill="#E0E0E0"/>
<path d="M634.875 28.1874H440.236V238.813H634.875V28.1874Z" fill="#E6E6E6"/>
<path d="M626.801 238.813H436.466V253.82H626.801V238.813Z" fill="#E0E0E0"/>
<path d="M648.324 238.813H453.684V253.82H648.324V238.813Z" fill="#E6E6E6"/>
<path d="M623.565 227.488V39.483L451.547 39.483V227.488H623.565Z" fill="#F5F5F5"/>
<path d="M490.599 227.503L556.963 39.4979H588.283L521.918 227.503H490.599Z" fill="#FAFAFA"/>
<path d="M528.643 227.503L595.007 39.4979H607.223L540.859 227.503H528.643Z" fill="#FAFAFA"/>
<path d="M623.565 227.503V39.4979H622.125V227.503H623.565Z" fill="#E0E0E0"/>
<path d="M451.68 18.3018H432.221V199.716H451.68V18.3018Z" fill="#EBEBEB"/>
<path d="M459.25 18.3018H444.095V199.716H459.25V18.3018Z" fill="#E0E0E0"/>
<path d="M471.14 18.3018H451.68V199.716H471.14V18.3018Z" fill="#EBEBEB"/>
<path d="M478.71 18.3018H463.555V199.716H478.71V18.3018Z" fill="#E0E0E0"/>
<path d="M490.599 18.3018H471.14V199.716H490.599V18.3018Z" fill="#EBEBEB"/>
<path d="M616.321 18.3018H605.115V199.716H616.321V18.3018Z" fill="#EBEBEB"/>
<path d="M620.7 18.3018H611.958V199.716H620.7V18.3018Z" fill="#E0E0E0"/>
<path d="M627.528 18.3018H616.321V199.716H627.528V18.3018Z" fill="#EBEBEB"/>
<path d="M631.907 18.3018H623.164V199.716H631.907V18.3018Z" fill="#E0E0E0"/>
<path d="M638.75 18.3018H627.543V199.716H638.75V18.3018Z" fill="#EBEBEB"/>
<path d="M163.825 75.1663H143.549V130.487H163.825V75.1663Z" fill="#E6E6E6"/>
<path d="M115.837 143.148L109.395 160.723H115.837L155.26 143.148H115.837Z" fill="#F0F0F0"/>
<path d="M109.395 143.148V160.723L148.833 143.148H109.395Z" fill="#E0E0E0"/>
<path d="M270.444 143.148L264.017 160.723H270.444L309.883 143.148H270.444Z" fill="#F0F0F0"/>
<path d="M264.017 143.148V160.723L303.441 143.148H264.017Z" fill="#E0E0E0"/>
<path d="M80.465 143.979H123.347V130.606H80.465V143.979Z" fill="#E0E0E0"/>
<path d="M336.526 130.606H123.333V143.979H336.526V130.606Z" fill="#F0F0F0"/>
<path d="M197.594 130.487H148.24L142.139 63.4401H191.493L197.594 130.487Z" fill="#E0E0E0"/>
<path d="M200.146 130.487H150.807L144.692 63.4401H194.046L200.146 130.487Z" fill="#F0F0F0"/>
<path d="M157.546 123.065L152.796 70.8617H187.307L192.057 123.065H157.546Z" fill="#FAFAFA"/>
<path d="M220.066 108.712C220.066 108.712 220.971 130.487 255.957 130.487C290.942 130.487 291.848 108.712 291.848 108.712H220.066Z" fill="#E6E6E6"/>
<path d="M183.7 481.159H129.626C128.402 481.183 127.202 480.814 126.203 480.105C125.205 479.397 124.46 478.386 124.08 477.222C123.699 476.058 123.702 474.803 124.089 473.641C124.475 472.479 125.225 471.472 126.227 470.768L127.103 471.956C126.39 472.489 125.863 473.232 125.596 474.081C125.329 474.93 125.336 475.841 125.615 476.686C125.893 477.531 126.431 478.267 127.151 478.789C127.87 479.312 128.736 479.596 129.626 479.6H183.7C187.014 479.596 190.19 478.278 192.533 475.935C194.876 473.592 196.194 470.416 196.198 467.102V307.077C196.202 303.471 197.635 300.013 200.184 297.462C202.732 294.911 206.188 293.474 209.794 293.466H225.974V294.95H209.794C206.582 294.958 203.504 296.239 201.233 298.512C198.963 300.785 197.686 303.865 197.682 307.077V467.176C197.675 470.882 196.199 474.434 193.578 477.055C190.958 479.675 187.406 481.151 183.7 481.159Z" fill="#E0E0E0"/>
<path d="M364.327 296.524H266.941V485.968H364.327V296.524Z" fill="#E0E0E0"/>
<path d="M367.994 296.524H359.964V485.968H367.994V296.524Z" fill="#EBEBEB"/>
<path d="M176.828 310.729H370.473V296.524H176.828V310.729Z" fill="#EBEBEB"/>
<path d="M175.67 296.524H78.2832V485.968H175.67V296.524Z" fill="#E0E0E0"/>
<path d="M179.321 296.524H171.291V485.968H179.321V296.524Z" fill="#EBEBEB"/>
<path d="M145.508 239.971H236.26L249.411 293.555H158.659L145.508 239.971Z" fill="#E0E0E0"/>
<path d="M158.66 293.555L159.031 296.524H249.782L249.426 293.555H158.66Z" fill="#E0E0E0"/>
<path d="M148.314 239.971H239.066L252.217 293.555H161.465L148.314 239.971Z" fill="#F0F0F0"/>
<path d="M163.379 291.106L151.431 242.42H237.136L249.084 291.106H163.379Z" fill="#FAFAFA"/>
<path d="M185.11 293.555L185.467 296.524H285.406L285.035 293.555H185.11Z" fill="#F0F0F0"/>
<path d="M114.397 283.016C114.397 283.016 101.038 259.995 119.577 241.663C119.577 241.663 124.401 244.825 124.327 249.085C124.253 253.345 119.162 254.399 120.245 257.991C121.329 261.583 126.183 264.997 123.006 267.921C119.83 270.845 123.511 273.442 123.303 277.035C123.095 280.627 114.397 283.016 114.397 283.016Z" fill="#F0F0F0"/>
<path d="M115.406 285.124C115.406 285.124 120.824 259.059 97.4607 247.511C97.4607 247.511 93.8686 252.038 95.2788 256.031C96.6889 260.024 101.869 259.43 101.943 263.141C102.018 266.852 98.5294 271.646 102.463 273.428C106.396 275.209 103.71 278.83 105.046 282.155C106.381 285.48 115.406 285.124 115.406 285.124Z" fill="#F0F0F0"/>
<path d="M94.9966 279.35C94.9966 279.35 95.4419 296.524 112.467 296.524C129.492 296.524 129.893 279.35 129.893 279.35H94.9966Z" fill="#E0E0E0"/>
<path d="M335.072 485.968H331.687L321.995 438.232L320.303 429.875L309.734 377.924H269.227L247.274 485.968H243.89L266.258 375.861C266.331 375.486 266.533 375.149 266.829 374.908C267.124 374.666 267.495 374.536 267.876 374.54H311.085C311.467 374.536 311.837 374.666 312.133 374.908C312.428 375.149 312.63 375.486 312.703 375.861L321.98 421.548L323.687 429.905L335.072 485.968Z" fill="#EBEBEB"/>
<path d="M400.1 485.968H396.701L374.748 377.865H334.255L323.687 429.905L321.995 438.232L312.302 485.968H308.918L320.303 429.875L321.98 421.548L331.272 375.861C331.345 375.486 331.546 375.149 331.842 374.908C332.138 374.666 332.508 374.536 332.89 374.54H376.099C376.481 374.538 376.853 374.669 377.15 374.91C377.447 375.15 377.653 375.486 377.731 375.861L400.1 485.968Z" fill="#EBEBEB"/>
<path d="M300.264 376.202H374.688C381.516 376.196 388.07 373.515 392.945 368.734C397.82 363.954 400.628 357.454 400.768 350.627L403.544 237.522C403.583 235 403.121 232.496 402.184 230.155C401.247 227.814 399.854 225.683 398.086 223.884C396.319 222.086 394.211 220.657 391.886 219.681C389.562 218.704 387.066 218.199 384.544 218.196H337.892C333.222 218.198 328.716 219.918 325.232 223.027C321.747 226.136 319.528 230.418 318.996 235.058L300.264 376.202Z" fill="#E6E6E6"/>
<path d="M340.846 376.202H261.538C260.554 376.202 259.61 375.811 258.914 375.115C258.218 374.419 257.827 373.476 257.827 372.491V372.135C257.827 369.431 258.902 366.837 260.814 364.924C262.726 363.012 265.32 361.938 268.025 361.938H340.846V376.202Z" fill="#E6E6E6"/>
<path d="M371.081 553C530.027 553 658.877 545.477 658.877 536.198C658.877 526.918 530.027 519.395 371.081 519.395C212.136 519.395 83.2856 526.918 83.2856 536.198C83.2856 545.477 212.136 553 371.081 553Z" fill="#F5F5F5"/>
<path d="M410.327 171.915L411.292 172.731C411.648 173.043 412.049 173.339 412.435 173.636C413.206 174.245 413.919 174.854 414.809 175.432C416.413 176.605 418.119 177.674 419.826 178.742C423.27 180.865 426.878 182.706 430.617 184.249C434.341 185.836 438.176 187.146 442.091 188.168C443.071 188.435 444.08 188.613 445.06 188.836L446.544 189.162C446.856 189.162 446.544 189.162 446.544 189.237C446.342 189.284 446.151 189.37 445.98 189.489C445.847 189.623 445.847 189.623 445.906 189.593C446.2 189.158 446.429 188.683 446.589 188.183C447.116 186.47 447.439 184.702 447.554 182.913C447.732 180.969 447.791 178.921 447.776 176.857C447.776 172.716 447.45 168.486 447.123 164.241C446.797 159.995 446.277 155.735 445.728 151.461C445.179 147.186 444.57 142.911 443.932 138.695L449.513 137.419C451.971 145.891 453.953 154.493 455.45 163.187C456.228 167.608 456.768 172.067 457.068 176.546C457.242 178.857 457.297 181.175 457.231 183.492C457.211 186.05 456.887 188.596 456.267 191.077C455.847 192.664 455.165 194.169 454.248 195.53C453.606 196.458 452.808 197.267 451.888 197.92C450.832 198.674 449.619 199.182 448.34 199.404C447.24 199.59 446.116 199.59 445.015 199.404L443.309 199.122C442.166 198.929 441.008 198.781 439.88 198.528C435.328 197.625 430.86 196.344 426.521 194.699C422.183 193.035 417.988 191.019 413.978 188.673C411.974 187.47 410.015 186.209 408.115 184.828C407.165 184.145 406.23 183.344 405.295 182.691C404.835 182.305 404.375 181.934 403.915 181.518C403.454 181.102 403.024 180.761 402.43 180.197L410.327 171.915Z" fill="#E4897B"/>
<path d="M394.192 165.161C410.519 162.949 423.641 176.115 423.641 176.115L408.708 199.152C408.708 199.152 392.707 188.91 389.887 181.934C386.978 174.675 385.835 166.244 394.192 165.161Z" fill="#216DE0"/>
<path opacity="0.6" d="M394.192 165.161C410.519 162.949 423.641 176.115 423.641 176.115L408.708 199.152C408.708 199.152 392.707 188.91 389.887 181.934C386.978 174.675 385.835 166.244 394.192 165.161Z" fill="#FAFAFA"/>
<path d="M444.065 140.699L438.647 129.834L452.852 129.715C452.852 129.715 453.134 137.3 449.542 141.59L444.065 140.699Z" fill="#E4897B"/>
<path d="M441.171 118.152L451.739 120.037L452.852 129.715L438.647 129.834L441.171 118.152Z" fill="#E4897B"/>
<path d="M336.452 523.774L349.751 525.05L358.954 493.82L345.654 492.529L336.452 523.774Z" fill="#E4897B"/>
<path d="M251.89 477.582L261.746 486.844L283.031 463.451L273.175 454.189L251.89 477.582Z" fill="#E4897B"/>
<path d="M266.302 482.406L258.881 469.047C258.755 468.818 258.55 468.642 258.305 468.552C258.059 468.462 257.789 468.464 257.545 468.557L246.13 472.891C245.848 473.012 245.594 473.191 245.385 473.417C245.176 473.643 245.016 473.909 244.917 474.201C244.818 474.492 244.781 474.8 244.808 475.106C244.836 475.413 244.927 475.71 245.077 475.979C247.734 480.58 249.262 482.673 252.498 488.536C254.502 492.158 258.436 500.411 261.182 505.428C263.928 510.445 269.019 507.936 268.321 505.621C265.145 495.23 265.753 489.397 266.644 484.84C266.822 484.014 266.701 483.151 266.302 482.406Z" fill="#263238"/>
<path d="M351.31 520.998H335.19C334.902 521.001 334.622 521.099 334.394 521.276C334.166 521.453 334.003 521.699 333.928 521.978L330.41 534.728C330.328 535.03 330.316 535.347 330.377 535.654C330.437 535.961 330.569 536.25 330.76 536.498C330.952 536.745 331.198 536.945 331.48 537.081C331.762 537.217 332.072 537.285 332.385 537.281C338.07 537.281 340.756 537.281 347.851 537.281H369.508C375.445 537.281 376.632 531.344 374.198 530.78C363.273 528.375 356.965 525.036 353.596 521.874C352.971 521.304 352.155 520.992 351.31 520.998Z" fill="#263238"/>
<path d="M358.954 493.82L354.204 509.925H340.519L345.639 492.543L358.954 493.82Z" fill="#CE6F64"/>
<path d="M273.16 454.203L283.031 463.451L272.047 475.504L262.191 466.256L273.16 454.203Z" fill="#CE6F64"/>
<path d="M410.282 155.943C410.178 145.152 400.411 141.382 400.411 141.382C400.411 141.382 412.627 118.256 406.348 102.908C400.07 87.5603 379.378 84.8589 372.817 92.0281C361.284 91.5383 357.618 108.103 357.618 108.103C357.618 108.103 347.97 109.721 345.372 116.742C342.775 123.763 350.686 131.674 350.686 131.674C350.686 131.674 339.672 133.159 335.62 141.634C331.568 150.11 334.062 161.361 346.233 171.068C363.926 185.17 396.448 167.476 396.448 167.476C396.448 167.476 410.401 168.352 410.282 155.943Z" fill="#263238"/>
<path d="M408.189 166.675C408.189 166.675 414.127 169.272 394.296 247.6L339.376 242.836C342.226 220.571 343.458 206.737 336.734 159.892C344.57 158.965 352.462 158.613 360.35 158.838C368.712 158.964 377.055 159.683 385.316 160.99C393.03 162.502 400.665 164.399 408.189 166.675Z" fill="#216DE0"/>
<path opacity="0.6" d="M408.189 166.675C408.189 166.675 414.127 169.272 394.296 247.6L339.376 242.836C342.226 220.571 343.458 206.737 336.734 159.892C344.57 158.965 352.462 158.613 360.35 158.838C368.712 158.964 377.055 159.683 385.316 160.99C393.03 162.502 400.665 164.399 408.189 166.675Z" fill="#FAFAFA"/>
<path d="M393.954 162.845C391.105 162.163 388.017 161.509 385.197 160.99C376.937 159.678 368.593 158.954 360.231 158.823C357.366 158.719 354.501 158.719 351.814 158.823L353.655 162.326C353.982 162.949 361.819 177.57 376.707 185.867L380.803 188.153L384.618 185.437C394.236 178.564 395.661 169.629 393.954 162.845Z" fill="#FAFAFA"/>
<path d="M365.144 130.932C366.02 139.111 366.316 153.969 360.246 158.838C360.246 158.838 367.192 172.033 380.343 179.351C391.98 171.069 385.212 160.99 385.212 160.99C376.44 158.021 377.241 151.461 379.275 145.345L365.144 130.932Z" fill="#E4897B"/>
<path d="M370.918 136.81L379.319 145.345C378.807 146.763 378.42 148.223 378.161 149.709C374.792 148.922 369.893 145.404 369.834 141.783C369.901 140.075 370.268 138.391 370.918 136.81Z" fill="#CE6F64"/>
<path d="M364.787 112.378C363.17 125.737 362.205 131.393 367.652 139.423C375.846 151.475 392.648 150.525 398.214 137.938C403.231 126.568 405.028 106.589 393.019 98.9452C390.386 97.2506 387.365 96.2562 384.24 96.0563C381.115 95.8564 377.991 96.4576 375.164 97.8029C372.337 99.1481 369.9 101.193 368.084 103.744C366.268 106.294 365.133 109.266 364.787 112.378Z" fill="#E4897B"/>
<path d="M375.148 95.9171C385.464 98.5889 375.267 129.968 358.82 120.869C358.82 120.869 359.562 107.614 364.134 101.988C366.899 98.6364 370.838 96.4653 375.148 95.9171Z" fill="#263238"/>
<path d="M374.05 97.6538C378.503 104.897 411.529 118.627 400.426 103.042C389.323 87.4565 374.05 97.6538 374.05 97.6538Z" fill="#263238"/>
<path d="M360.542 123.941C360.357 126.544 361.205 129.114 362.902 131.096C365.188 133.693 368.201 132.12 369.151 128.973C369.997 126.153 369.834 121.403 366.791 119.948C366.12 119.652 365.385 119.527 364.654 119.583C363.922 119.639 363.215 119.875 362.597 120.27C361.978 120.665 361.467 121.207 361.109 121.848C360.75 122.488 360.556 123.207 360.542 123.941Z" fill="#E4897B"/>
<path d="M394.236 247.6C394.236 247.6 412.835 329.891 400.426 387.899C392.114 426.758 362.115 505.249 362.115 505.249L338.663 504.656C338.663 504.656 361.358 422.276 366.064 389.888C374.094 334.463 353.981 244.112 353.981 244.112L394.236 247.6Z" fill="#263238"/>
<path d="M372.788 264.21L361.062 282.705C364.596 304.636 366.837 326.756 367.771 348.95C384.262 319.427 376.454 279.84 372.788 264.21Z" fill="#263238"/>
<path d="M364.045 506.467L335.071 505.724L336.749 496.833L368.38 498.332L364.045 506.467Z" fill="#216DE0"/>
<path opacity="0.6" d="M364.045 506.467L335.071 505.724L336.749 496.833L368.38 498.332L364.045 506.467Z" fill="#FAFAFA"/>
<path d="M382.213 246.71C382.213 246.71 371.304 333.988 347.644 381.635C328.54 420.064 277.569 474.984 277.569 474.984L264.536 461.551C264.536 461.551 298.972 402.015 313.177 376.44C348 313.757 319.53 265.932 339.272 242.85L382.213 246.71Z" fill="#263238"/>
<path d="M278.875 476.706L262.042 460.304L267.638 452.704L285.97 471.659L278.875 476.706Z" fill="#216DE0"/>
<path opacity="0.6" d="M278.875 476.706L262.042 460.304L267.638 452.704L285.97 471.659L278.875 476.706Z" fill="#FAFAFA"/>
<path d="M338.708 239.54L335.813 244.246C335.576 244.617 336.006 245.047 336.63 245.092L394.296 250.079C394.8 250.079 395.231 249.916 395.29 249.604L396.211 244.735C396.211 244.394 395.869 244.067 395.32 244.023L339.643 239.199C339.471 239.17 339.294 239.186 339.13 239.246C338.966 239.306 338.821 239.407 338.708 239.54Z" fill="#216DE0"/>
<path opacity="0.3" d="M338.708 239.54L335.813 244.246C335.576 244.617 336.006 245.047 336.63 245.092L394.296 250.079C394.8 250.079 395.231 249.916 395.29 249.604L396.211 244.735C396.211 244.394 395.869 244.067 395.32 244.023L339.643 239.199C339.471 239.17 339.294 239.186 339.13 239.246C338.966 239.306 338.821 239.407 338.708 239.54Z" fill="black"/>
<path d="M345.655 246.398L344.17 246.264C343.873 246.264 343.666 246.071 343.695 245.878L344.957 239.555C344.957 239.362 345.269 239.229 345.565 239.258L347.05 239.392C347.347 239.392 347.554 239.585 347.525 239.778L346.278 246.101C346.219 246.309 345.951 246.398 345.655 246.398Z" fill="#263238"/>
<path d="M390.066 250.257L388.581 250.124C388.284 250.124 388.077 249.931 388.106 249.738L389.368 243.4C389.368 243.222 389.68 243.088 389.977 243.118L391.461 243.251C391.758 243.251 391.966 243.444 391.936 243.622L390.689 249.96C390.63 250.153 390.377 250.272 390.066 250.257Z" fill="#263238"/>
<path d="M367.86 248.328L366.376 248.209C366.079 248.209 365.871 248.001 365.901 247.823L367.162 241.485C367.162 241.307 367.474 241.173 367.771 241.203L369.255 241.322C369.552 241.322 369.76 241.529 369.73 241.708L368.484 248.046C368.424 248.224 368.112 248.357 367.86 248.328Z" fill="#263238"/>
<path d="M384.187 119.755C383.994 120.824 384.41 121.804 385.108 121.937C385.805 122.071 386.592 121.299 386.74 120.216C386.889 119.132 386.533 118.152 385.82 118.034C385.108 117.915 384.44 118.746 384.187 119.755Z" fill="#263238"/>
<path d="M396.314 121.982C396.121 123.051 396.537 124.03 397.235 124.164C397.932 124.297 398.719 123.526 398.867 122.442C399.016 121.358 398.66 120.379 397.947 120.26C397.235 120.141 396.582 120.898 396.314 121.982Z" fill="#263238"/>
<path d="M397.695 120.23L400.411 119.963C400.411 119.963 398.719 121.715 397.695 120.23Z" fill="#263238"/>
<path d="M392.812 123.199C393.331 125.833 394.204 128.385 395.409 130.784C394.786 131.074 394.107 131.225 393.42 131.225C392.733 131.225 392.054 131.074 391.431 130.784L392.812 123.199Z" fill="#DE5753"/>
<path d="M386.919 134.346C385.471 134.122 384.097 133.553 382.914 132.688C381.731 131.823 380.773 130.686 380.121 129.374C380.096 129.309 380.098 129.237 380.126 129.173C380.153 129.109 380.205 129.059 380.269 129.032C380.3 129.018 380.334 129.01 380.368 129.009C380.402 129.007 380.437 129.013 380.469 129.026C380.501 129.038 380.53 129.057 380.554 129.081C380.578 129.105 380.598 129.134 380.611 129.166C381.236 130.389 382.141 131.448 383.253 132.255C384.365 133.062 385.651 133.596 387.008 133.812C387.079 133.812 387.147 133.84 387.197 133.89C387.247 133.94 387.275 134.008 387.275 134.079C387.275 134.15 387.247 134.218 387.197 134.268C387.147 134.318 387.079 134.346 387.008 134.346H386.919Z" fill="#263238"/>
<path d="M381.293 111.324C381.18 111.327 381.068 111.293 380.976 111.227C380.883 111.162 380.813 111.069 380.777 110.961C380.74 110.854 380.739 110.738 380.773 110.63C380.807 110.521 380.875 110.427 380.966 110.36C381.748 109.73 382.67 109.297 383.655 109.098C384.639 108.899 385.656 108.94 386.622 109.217C386.688 109.24 386.749 109.276 386.801 109.323C386.854 109.37 386.896 109.427 386.927 109.49C386.957 109.554 386.975 109.623 386.978 109.693C386.982 109.763 386.972 109.833 386.948 109.899C386.925 109.966 386.889 110.027 386.842 110.079C386.795 110.132 386.738 110.174 386.675 110.204C386.611 110.235 386.542 110.252 386.472 110.256C386.402 110.26 386.332 110.25 386.265 110.226C385.469 110.007 384.632 109.982 383.824 110.152C383.015 110.323 382.26 110.684 381.62 111.206C381.525 111.277 381.411 111.318 381.293 111.324Z" fill="#263238"/>
<path d="M403.261 117.885C403.182 117.885 403.104 117.867 403.032 117.834C402.961 117.801 402.897 117.752 402.846 117.692C402.339 117.038 401.685 116.513 400.937 116.16C400.189 115.806 399.368 115.635 398.541 115.659C398.4 115.671 398.259 115.629 398.149 115.54C398.038 115.452 397.966 115.324 397.947 115.184C397.939 115.114 397.945 115.044 397.965 114.977C397.984 114.91 398.017 114.847 398.062 114.793C398.106 114.739 398.161 114.694 398.223 114.662C398.285 114.63 398.353 114.61 398.422 114.605C399.427 114.553 400.429 114.745 401.344 115.163C402.259 115.582 403.059 116.215 403.677 117.009C403.774 117.111 403.828 117.247 403.828 117.388C403.828 117.529 403.774 117.664 403.677 117.766C403.558 117.857 403.41 117.899 403.261 117.885Z" fill="#263238"/>
<path d="M340.786 179.603C338.553 184.033 336.076 188.334 333.364 192.487C330.693 196.584 327.872 200.592 324.829 204.451C321.755 208.324 318.459 212.016 314.959 215.509C313.148 217.216 311.381 218.953 309.437 220.556L307.953 221.773L307.596 222.07L307.121 222.441C306.808 222.696 306.481 222.934 306.142 223.154C304.792 224.078 303.324 224.817 301.778 225.35C298.865 226.3 295.788 226.639 292.738 226.345C290.007 226.072 287.316 225.479 284.723 224.579C279.919 222.902 275.338 220.644 271.082 217.855C262.894 212.543 255.352 206.297 248.609 199.241L252.558 195.1C256.105 197.95 259.846 200.785 263.675 203.353C267.426 205.98 271.332 208.379 275.372 210.537C279.218 212.65 283.278 214.346 287.484 215.598C291.492 216.712 295.514 216.905 298.29 215.747C299.858 215.065 301.261 214.052 302.401 212.778C304.049 211.294 305.578 209.646 307.136 208.043C310.179 204.733 312.999 201.186 315.775 197.653C318.551 194.12 321.059 190.231 323.494 186.372C324.726 184.442 325.898 182.483 327.056 180.524C328.214 178.564 329.327 176.501 330.292 174.661L340.786 179.603Z" fill="#E4897B"/>
<path d="M256.313 196.866L251.029 185.941L242.242 197.104C242.242 197.104 248.06 201.957 253.716 201.779L256.313 196.866Z" fill="#E4897B"/>
<path d="M245.255 182.75L240.282 192.265L242.242 197.104L251.029 185.941L245.255 182.75Z" fill="#E4897B"/>
<path d="M336.615 159.892C329.876 161.079 320.421 180.42 320.421 180.42L338.93 197.148C338.93 197.148 350.924 181.043 350.211 172.256C349.603 164.76 345.194 158.378 336.615 159.892Z" fill="#216DE0"/>
<path opacity="0.6" d="M336.615 159.892C329.876 161.079 320.421 180.42 320.421 180.42L338.93 197.148C338.93 197.148 350.924 181.043 350.211 172.256C349.603 164.76 345.194 158.378 336.615 159.892Z" fill="#FAFAFA"/>
<path d="M268.9 489.575C268.723 489.577 268.547 489.546 268.381 489.486C266.763 488.952 265.709 485.968 265.219 484.231C265.204 484.181 265.205 484.127 265.221 484.077C265.237 484.027 265.267 483.982 265.308 483.949C265.353 483.923 265.404 483.91 265.456 483.91C265.509 483.91 265.56 483.923 265.605 483.949C266.095 484.202 270.399 486.517 270.533 488.209C270.553 488.395 270.521 488.583 270.439 488.751C270.358 488.919 270.231 489.06 270.073 489.159C269.738 489.424 269.326 489.57 268.9 489.575ZM265.931 484.706C266.674 487.096 267.638 488.67 268.559 488.981C268.769 489.044 268.991 489.051 269.205 489.002C269.418 488.952 269.615 488.848 269.776 488.699C269.857 488.651 269.922 488.581 269.965 488.497C270.007 488.413 270.024 488.318 270.013 488.224C269.924 487.185 267.401 485.538 265.917 484.706H265.931Z" fill="#216DE0"/>
<path d="M269.568 485.374C268.1 485.369 266.654 485.029 265.337 484.38C265.296 484.36 265.261 484.328 265.237 484.288C265.214 484.249 265.202 484.203 265.204 484.157C265.204 484.108 265.218 484.059 265.244 484.017C265.271 483.975 265.308 483.942 265.352 483.92C265.486 483.92 268.9 481.975 270.74 482.628C270.967 482.702 271.174 482.826 271.346 482.99C271.518 483.154 271.651 483.355 271.735 483.578C271.852 483.792 271.893 484.04 271.849 484.281C271.806 484.521 271.682 484.739 271.497 484.899C270.923 485.264 270.246 485.431 269.568 485.374ZM266.065 484.157C267.549 484.781 270.354 485.166 271.156 484.484C271.29 484.38 271.408 484.187 271.245 483.771C271.186 483.621 271.094 483.485 270.976 483.375C270.858 483.264 270.716 483.182 270.562 483.133C269.301 482.688 267.03 483.682 266.065 484.157Z" fill="#216DE0"/>
<path d="M358.464 523.611C356.964 523.576 355.472 523.387 354.011 523.047C353.956 523.034 353.906 523.004 353.868 522.962C353.831 522.919 353.808 522.866 353.803 522.809C353.795 522.754 353.806 522.699 353.833 522.65C353.859 522.602 353.901 522.564 353.952 522.542C354.62 522.23 360.453 519.573 361.937 520.523C362.07 520.615 362.176 520.74 362.243 520.886C362.311 521.033 362.339 521.194 362.323 521.354C362.306 521.645 362.225 521.929 362.086 522.185C361.948 522.441 361.755 522.664 361.522 522.839C360.603 523.398 359.538 523.667 358.464 523.611ZM354.991 522.69C356.727 523.017 359.934 523.432 361.255 522.438C361.429 522.307 361.573 522.14 361.676 521.948C361.778 521.755 361.837 521.543 361.848 521.325C361.857 521.258 361.848 521.189 361.822 521.127C361.796 521.064 361.754 521.01 361.7 520.969C360.869 520.404 357.41 521.622 354.991 522.69Z" fill="#216DE0"/>
<path d="M354.13 523.046C354.073 523.069 354.009 523.069 353.952 523.046C353.915 523.014 353.887 522.972 353.871 522.925C353.856 522.878 353.853 522.828 353.863 522.779C353.863 522.542 355.258 516.768 358.419 517.139C359.221 517.228 359.429 517.629 359.473 517.94C359.681 519.425 355.985 522.393 354.234 523.091L354.13 523.046ZM358.137 517.599C356.104 517.599 354.931 520.953 354.531 522.304C356.445 521.295 359.073 518.89 358.984 517.955C358.984 517.881 358.984 517.673 358.405 517.614L358.137 517.599Z" fill="#216DE0"/>
<path d="M385.509 118.034L388.225 117.752C388.225 117.752 386.533 119.533 385.509 118.034Z" fill="#263238"/>
<path opacity="0.6" d="M273.843 33.4419L230.337 314.677L475.132 352.498L518.638 71.2477L273.843 33.4419ZM374.421 193.408C363.185 191.669 352.717 186.636 344.342 178.947C335.967 171.257 330.06 161.256 327.37 150.209C324.68 139.162 325.327 127.566 329.229 116.886C333.131 106.207 340.113 96.9252 349.291 90.2148C358.47 83.5045 369.432 79.6673 380.792 79.1886C392.152 78.71 403.398 81.6115 413.108 87.526C422.819 93.4405 430.557 102.102 435.343 112.415C440.13 122.729 441.75 134.23 439.998 145.464C437.652 160.514 429.427 174.017 417.131 183.007C404.835 191.996 389.473 195.737 374.421 193.408Z" fill="#216DE0"/>
<g style="mix-blend-mode:multiply" opacity="0.3">
<path d="M467.74 341.825H467.369L222.203 303.841V303.47L265.827 21.9087H266.184L511.35 59.8926V60.2636L467.74 341.825ZM223.049 303.233L467.117 340.979L510.504 60.4418L266.436 22.7548L223.049 303.233Z" fill="#216DE0"/>
</g>
<path d="M383.237 196.317C380.171 196.314 377.109 196.075 374.079 195.604C358.851 193.229 345.136 185.048 335.81 172.778C326.484 160.508 322.273 145.103 324.059 129.795C325.846 114.487 333.492 100.466 345.394 90.6744C357.295 80.8823 372.526 76.0802 387.891 77.2755C403.257 78.4709 417.562 85.5708 427.806 97.0857C438.049 108.6 443.435 123.635 442.833 139.035C442.231 154.435 435.688 169.004 424.576 179.683C413.465 190.363 398.649 196.325 383.237 196.317ZM374.762 191.211C385.557 192.879 396.604 191.308 406.506 186.698C416.408 182.088 424.721 174.645 430.394 165.311C436.067 155.977 438.844 145.17 438.376 134.257C437.907 123.344 434.213 112.816 427.761 104.002C421.309 95.1883 412.389 88.4857 402.128 84.7414C391.867 80.9971 380.726 80.3794 370.114 82.9664C359.502 85.5533 349.895 91.2288 342.508 99.2752C335.121 107.322 330.286 117.377 328.614 128.172C326.391 142.648 330.002 157.415 338.653 169.233C347.304 181.051 360.29 188.955 374.762 191.211Z" fill="#FAFAFA"/>
<path d="M327.135 210.807L273.212 202.469L271.338 214.586L325.261 222.924L327.135 210.807Z" fill="#216DE0"/>
<path opacity="0.6" d="M327.135 210.807L273.212 202.469L271.338 214.586L325.261 222.924L327.135 210.807Z" fill="#FAFAFA"/>
<path d="M370.719 217.549L334.238 211.908L332.364 224.024L368.846 229.665L370.719 217.549Z" fill="#216DE0"/>
<path opacity="0.6" d="M370.719 217.549L334.238 211.908L332.364 224.024L368.846 229.665L370.719 217.549Z" fill="#FAFAFA"/>
<path d="M464.4 257.173L269.406 227.021L267.533 239.138L462.527 269.29L464.4 257.173Z" fill="#FAFAFA"/>
<path d="M363.976 267.355L266.843 252.638L265.004 264.776L362.137 279.493L363.976 267.355Z" fill="#FAFAFA"/>
<path d="M443.848 280.375L378.982 270.344L377.109 282.461L441.975 292.491L443.848 280.375Z" fill="#FAFAFA"/>
<path d="M417.333 302.662L261.446 278.557L259.573 290.674L415.459 314.778L417.333 302.662Z" fill="#FAFAFA"/>
<path d="M521.25 352.497H519.766C519.771 348.814 519.318 345.144 518.415 341.573L519.899 341.217C520.817 344.906 521.271 348.696 521.25 352.497ZM515.432 333.32C512.165 326.485 507.229 320.583 501.078 316.161L501.939 314.959C508.291 319.52 513.395 325.604 516.782 332.652L515.432 333.32Z" fill="#216DE0"/>
<path opacity="0.6" d="M521.25 352.497H519.766C519.771 348.814 519.318 345.144 518.415 341.573L519.899 341.217C520.817 344.906 521.271 348.696 521.25 352.497ZM515.432 333.32C512.165 326.485 507.229 320.583 501.078 316.161L501.939 314.959C508.291 319.52 513.395 325.604 516.782 332.652L515.432 333.32Z" fill="#FAFAFA"/>
<path d="M475.132 311.575C467.038 311.575 459.126 313.975 452.396 318.471C445.667 322.968 440.421 329.359 437.324 336.837C434.227 344.315 433.416 352.543 434.995 360.481C436.574 368.419 440.472 375.711 446.195 381.434C451.918 387.158 459.21 391.055 467.148 392.634C475.086 394.213 483.315 393.403 490.792 390.305C498.27 387.208 504.661 381.963 509.158 375.233C513.655 368.503 516.055 360.591 516.055 352.498C516.055 341.644 511.743 331.235 504.069 323.561C496.394 315.886 485.985 311.575 475.132 311.575ZM475.132 388.121C468.086 388.121 461.199 386.032 455.34 382.118C449.482 378.203 444.916 372.64 442.22 366.13C439.523 359.621 438.818 352.458 440.193 345.548C441.567 338.637 444.96 332.29 449.942 327.308C454.924 322.326 461.272 318.933 468.182 317.558C475.092 316.184 482.255 316.889 488.764 319.585C495.274 322.282 500.838 326.848 504.752 332.706C508.666 338.564 510.756 345.452 510.756 352.498C510.756 361.946 507.002 371.007 500.322 377.687C493.641 384.368 484.58 388.121 475.132 388.121Z" fill="#216DE0"/>
<path opacity="0.6" d="M475.132 311.575C467.038 311.575 459.126 313.975 452.396 318.471C445.667 322.968 440.421 329.359 437.324 336.837C434.227 344.315 433.416 352.543 434.995 360.481C436.574 368.419 440.472 375.711 446.195 381.434C451.918 387.158 459.21 391.055 467.148 392.634C475.086 394.213 483.315 393.403 490.792 390.305C498.27 387.208 504.661 381.963 509.158 375.233C513.655 368.503 516.055 360.591 516.055 352.498C516.055 341.644 511.743 331.235 504.069 323.561C496.394 315.886 485.985 311.575 475.132 311.575ZM475.132 388.121C468.086 388.121 461.199 386.032 455.34 382.118C449.482 378.203 444.916 372.64 442.22 366.13C439.523 359.621 438.818 352.458 440.193 345.548C441.567 338.637 444.96 332.29 449.942 327.308C454.924 322.326 461.272 318.933 468.182 317.558C475.092 316.184 482.255 316.889 488.764 319.585C495.274 322.282 500.838 326.848 504.752 332.706C508.666 338.564 510.756 345.452 510.756 352.498C510.756 361.946 507.002 371.007 500.322 377.687C493.641 384.368 484.58 388.121 475.132 388.121Z" fill="#FAFAFA"/>
<path d="M475.132 388.106C494.799 388.106 510.741 372.164 510.741 352.498C510.741 332.831 494.799 316.889 475.132 316.889C455.466 316.889 439.523 332.831 439.523 352.498C439.523 372.164 455.466 388.106 475.132 388.106Z" fill="#216DE0"/>
<path opacity="0.2" d="M475.132 388.106C494.799 388.106 510.741 372.164 510.741 352.498C510.741 332.831 494.799 316.889 475.132 316.889C455.466 316.889 439.523 332.831 439.523 352.498C439.523 372.164 455.466 388.106 475.132 388.106Z" fill="black"/>
<path d="M469.596 375.03L448.696 354.13L453.951 348.891L469.596 364.535L496.328 337.803L501.568 343.057L469.596 375.03Z" fill="#FAFAFA"/>
</svg>
