<svg width="60" height="60" viewBox="0 0 60 60" fill="none" xmlns="http://www.w3.org/2000/svg">
<circle cx="30" cy="30" r="30" fill="#216DE0" fill-opacity="0.1"/>
<path d="M24.4994 15C20.2315 15 16.7593 18.3942 16.7593 22.5661V24.6292C16.7593 25.2881 17.0218 25.9076 17.4984 26.3735C17.9604 26.825 18.5702 27.0793 19.2211 27.0945C19.4267 27.7342 19.751 28.323 20.1685 28.8363C19.3196 29.4217 18.5958 30.1773 18.0574 31.0464C17.9269 31.2569 17.9958 31.5309 18.2112 31.6583C18.285 31.702 18.3664 31.7228 18.4468 31.7228C18.601 31.7228 18.7514 31.6462 18.8372 31.508C19.3329 30.7078 20.0073 30.0169 20.7998 29.4928C21.7806 30.3571 23.0783 30.8841 24.4996 30.8841C25.9211 30.8841 27.2189 30.357 28.1997 29.4926C28.5502 29.7242 28.8789 29.9885 29.1791 30.282C29.5575 30.6518 29.888 31.0641 30.1614 31.5073C30.2469 31.646 30.3976 31.7228 30.5521 31.7228C30.6322 31.7228 30.7134 31.7021 30.7871 31.6587C31.0026 31.5316 31.072 31.2578 30.942 31.0471C30.6306 30.5422 30.2543 30.0727 29.8238 29.6518C29.5171 29.3521 29.1843 29.0793 28.8309 28.836C29.2483 28.3228 29.5725 27.7341 29.7781 27.0945C30.3664 27.0805 30.9054 26.8694 31.3282 26.5255V27.0097C31.3282 27.5297 30.8954 27.9528 30.3634 27.9528C30.1117 27.9528 29.9076 28.1523 29.9076 28.3983C29.9076 28.6444 30.1117 28.8439 30.3634 28.8439C31.398 28.8439 32.2398 28.0211 32.2398 27.0097V22.5661C32.2396 18.3942 28.7673 15 24.4994 15ZM18.1429 25.7435C17.8385 25.4459 17.6708 25.0502 17.6708 24.6293C17.6708 23.8605 18.237 23.219 18.9832 23.0814C18.9733 23.2129 18.9682 23.3456 18.9682 23.4795V25.4772C18.9682 25.7164 18.9844 25.952 19.0153 26.183C18.6865 26.1296 18.3833 25.9784 18.1429 25.7435ZM29.1192 25.4771C29.1192 27.9672 27.0468 29.993 24.4995 29.993C21.9522 29.993 19.8798 27.9672 19.8798 25.4772V23.569C19.9743 23.5751 20.0689 23.5792 20.1638 23.5792C21.6241 23.5792 22.9753 22.8421 23.7592 21.6776C24.543 22.8421 25.8942 23.5792 27.3545 23.5792C27.9654 23.5792 28.5615 23.4534 29.1105 23.2127C29.1157 23.301 29.1192 23.3898 29.1192 23.4794V25.4771ZM19.9536 22.681C20.3406 20.5707 22.231 18.9636 24.4996 18.9636C26.6272 18.9636 28.4226 20.3774 28.9566 22.2941C28.4663 22.5523 27.9185 22.6881 27.3546 22.6881C25.9535 22.6881 24.68 21.827 24.1858 20.5454C24.1188 20.3719 23.949 20.257 23.7593 20.257C23.5696 20.257 23.3997 20.3719 23.3328 20.5454C22.8385 21.827 21.565 22.6881 20.164 22.6881C20.0936 22.6881 20.0235 22.6852 19.9536 22.681ZM29.9837 26.1827C30.0146 25.9517 30.0308 25.7163 30.0308 25.4771V23.4795C30.0308 23.3454 30.0256 23.2126 30.0158 23.081C30.3322 23.1387 30.6234 23.2877 30.856 23.5151C31.1604 23.8126 31.3281 24.2083 31.3281 24.6292C31.328 25.4089 30.7455 26.0578 29.9837 26.1827ZM31.328 22.7314C30.914 22.3942 30.406 22.1979 29.8657 22.1672C29.2643 19.8179 27.0866 18.0726 24.4994 18.0726C21.9123 18.0726 19.7347 19.8179 19.1332 22.1672C18.579 22.199 18.0724 22.4062 17.6707 22.733V22.5662C17.6708 18.8855 20.7341 15.8911 24.4994 15.8911C28.2647 15.8911 31.328 18.8855 31.328 22.5661V22.7314Z" fill="#216DE0"/>
<path d="M27.5341 24.9115C27.2706 24.6537 26.92 24.5118 26.5472 24.5118C26.1744 24.5118 25.8239 24.6537 25.5603 24.9114C25.3822 25.0855 25.3823 25.3675 25.5603 25.5416C25.7383 25.7156 26.0268 25.7155 26.2049 25.5416C26.2963 25.4521 26.4179 25.403 26.5472 25.403C26.6766 25.403 26.7981 25.4522 26.8896 25.5416C26.9785 25.6285 27.0952 25.672 27.2118 25.672C27.3285 25.672 27.4451 25.6286 27.5341 25.5416C27.7122 25.3675 27.7122 25.0854 27.5341 24.9115Z" fill="#216DE0"/>
<path d="M23.4389 24.9114C23.1753 24.6537 22.8248 24.5118 22.452 24.5118C22.0791 24.5118 21.7287 24.6537 21.465 24.9114C21.287 25.0855 21.2871 25.3675 21.465 25.5416C21.6431 25.7156 21.9316 25.7155 22.1097 25.5416C22.2011 25.4521 22.3227 25.403 22.452 25.403C22.5813 25.403 22.7028 25.4522 22.7943 25.5416C22.8833 25.6285 23 25.672 23.1167 25.672C23.2333 25.672 23.3499 25.6285 23.439 25.5416C23.6169 25.3675 23.6169 25.0854 23.4389 24.9114Z" fill="#216DE0"/>
<path d="M25.9182 27.2702C25.7401 27.0961 25.4516 27.0962 25.2735 27.2702C24.8471 27.687 24.1532 27.687 23.7268 27.2702C23.5488 27.0962 23.2602 27.0962 23.0823 27.2702C22.9042 27.4442 22.9042 27.7263 23.0823 27.9002C23.4732 28.2824 23.9866 28.4735 24.5002 28.4735C25.0136 28.4735 25.5272 28.2823 25.9181 27.9002C26.0962 27.7262 26.0962 27.4442 25.9182 27.2702Z" fill="#216DE0"/>
<path d="M33.5435 36.2657C33.7953 36.2657 33.9993 36.0662 33.9993 35.8201V33.9095C33.9993 32.9284 33.1831 32.1303 32.1799 32.1303H16.8194C15.8162 32.1303 15 32.9284 15 33.9094V43.2208C14.9999 44.2019 15.8161 45 16.8194 45H32.1799C33.1831 45 33.9993 44.2019 33.9993 43.2209V37.3054C33.9993 37.0593 33.7953 36.8598 33.5435 36.8598C33.2918 36.8598 33.0877 37.0593 33.0877 37.3054V43.2209C33.0877 43.7105 32.6805 44.1089 32.1799 44.1089H16.8194C16.3188 44.1089 15.9116 43.7105 15.9116 43.2209V33.9095C15.9116 33.4198 16.3188 33.0214 16.8194 33.0214H32.1799C32.6804 33.0214 33.0877 33.4198 33.0877 33.9095V35.8201C33.0877 36.0662 33.2917 36.2657 33.5435 36.2657Z" fill="#216DE0"/>
<path d="M24.4993 36.6939C23.4437 36.6939 22.585 37.5334 22.585 38.5652C22.585 39.597 23.4437 40.4364 24.4993 40.4364C25.5548 40.4364 26.4136 39.597 26.4136 38.5652C26.4136 37.5333 25.5548 36.6939 24.4993 36.6939ZM24.4993 39.5453C23.9464 39.5453 23.4966 39.1056 23.4966 38.5651C23.4966 38.0246 23.9464 37.5849 24.4993 37.5849C25.0521 37.5849 25.502 38.0247 25.502 38.5651C25.502 39.1056 25.0522 39.5453 24.4993 39.5453Z" fill="#216DE0"/>
<path d="M38.8906 15.0298C37.5096 15.0298 36.2067 15.4408 35.1226 16.2184C34.9196 16.364 34.8758 16.6428 35.0248 16.8412C35.1737 17.0396 35.459 17.0824 35.6618 16.9368C36.5884 16.2722 37.705 15.9209 38.8906 15.9209C41.7567 15.9209 44.0884 18.0273 44.0884 20.6165C44.0884 23.2056 41.7567 25.3121 38.8906 25.3121C38.4682 25.3121 38.0471 25.2658 37.6389 25.1746C37.4659 25.1361 37.2858 25.199 37.1771 25.336C36.7782 25.839 35.9184 26.1313 35.1802 26.2873C35.4977 25.7435 35.6868 25.1802 35.7981 24.7337C35.8414 24.5602 35.7744 24.3781 35.6279 24.2711C34.3982 23.3738 33.6928 22.0418 33.6928 20.6165C33.6928 19.605 34.0434 18.6416 34.7066 17.8304C34.8638 17.6381 34.8318 17.3578 34.6351 17.2042C34.4384 17.0505 34.1516 17.0818 33.9945 17.2741C33.2008 18.2449 32.7812 19.4007 32.7812 20.6165C32.7812 22.2277 33.5266 23.7351 34.8371 24.7965C34.6676 25.3586 34.3656 26.0473 33.8352 26.5658C33.7015 26.6964 33.6643 26.8944 33.7416 27.063C33.8154 27.2239 33.9786 27.3264 34.1575 27.3263C34.1661 27.3263 34.1749 27.3261 34.1836 27.3256C34.2869 27.3199 36.5862 27.1788 37.7022 26.097C38.0927 26.1675 38.4912 26.2031 38.8907 26.2031C42.2594 26.2031 45 23.697 45 20.6165C45 17.536 42.2594 15.0298 38.8906 15.0298Z" fill="#216DE0"/>
<path d="M37.4403 20.7953C37.2689 20.6961 37.0484 20.7177 36.9001 20.8472C36.7332 20.993 36.7051 21.2436 36.8272 21.4247C37.0433 21.7462 37.5651 21.6477 37.6506 21.2749C37.6929 21.0902 37.6071 20.892 37.4403 20.7953Z" fill="#216DE0"/>
<path d="M40.7893 20.7846C40.6176 20.6956 40.4015 20.7233 40.2604 20.8546C40.1025 21.0017 40.0735 21.2474 40.1958 21.4247C40.4176 21.7533 40.9554 21.6401 41.0235 21.2535C41.0565 21.0665 40.9612 20.8737 40.7893 20.7846Z" fill="#216DE0"/>
<path d="M39.0516 20.7797C38.8874 20.6989 38.6831 20.7248 38.5452 20.8434C38.3983 20.9698 38.3512 21.1815 38.4297 21.3564C38.5145 21.5452 38.729 21.6556 38.9363 21.6142C39.1201 21.5767 39.2649 21.4325 39.2963 21.251C39.3292 21.0603 39.2276 20.8664 39.0516 20.7797Z" fill="#216DE0"/>
</svg>
