<svg width="60" height="60" viewBox="0 0 60 60" fill="none" xmlns="http://www.w3.org/2000/svg">
<circle cx="30" cy="30" r="30" fill="#216DE0" fill-opacity="0.1"/>
<path d="M39.0671 23.7158C39.4014 23.7158 39.6726 23.4535 39.6726 23.1299V16.7578C39.6726 15.7886 38.8577 15 37.8561 15H15.8165C14.8149 15 14 15.7886 14 16.7578V43.2422C14 44.2114 14.8149 45 15.8165 45H37.8561C38.8577 45 39.6726 44.2114 39.6726 43.2422V38.9255C39.6726 38.6019 39.4014 38.3395 39.0671 38.3395C38.7327 38.3395 38.4616 38.6019 38.4616 38.9255V43.2422C38.4616 43.5653 38.19 43.8281 37.8561 43.8281H15.8165C15.4826 43.8281 15.211 43.5653 15.211 43.2422V16.7578C15.211 16.4347 15.4826 16.1719 15.8165 16.1719H37.8561C38.19 16.1719 38.4616 16.4347 38.4616 16.7578V23.1299C38.4616 23.4535 38.7327 23.7158 39.0671 23.7158Z" fill="#216DE0"/>
<path d="M26.8366 18.1641C23.765 18.1641 21.2661 20.5823 21.2661 23.5547C21.2661 25.0967 21.9388 26.4894 23.0149 27.4728C23.035 27.4937 23.0565 27.5134 23.0799 27.5314C24.0711 28.4091 25.3903 28.9453 26.8365 28.9453C28.2827 28.9453 29.6019 28.409 30.5931 27.5314C30.6166 27.5134 30.638 27.4936 30.6582 27.4728C31.7343 26.4894 32.407 25.0967 32.407 23.5547C32.407 20.5823 29.9081 18.1641 26.8366 18.1641ZM26.8366 27.7734C25.8479 27.7734 24.9354 27.4528 24.2033 26.914C24.7354 26.0008 25.7285 25.4297 26.8366 25.4297C27.9447 25.4297 28.9377 26.0008 29.4699 26.914C28.7377 27.4528 27.8253 27.7734 26.8366 27.7734ZM25.8678 23.3203V22.9395C25.8678 22.4225 26.3024 22.002 26.8366 22.002C27.3707 22.002 27.8054 22.4225 27.8054 22.9395V23.3203C27.8054 23.8372 27.3707 24.2578 26.8366 24.2578C26.3024 24.2578 25.8678 23.8372 25.8678 23.3203ZM30.3448 26.0556C29.8982 25.4147 29.2793 24.9163 28.5608 24.6086C28.846 24.2519 29.0163 23.8051 29.0163 23.3203V22.9395C29.0163 21.7763 28.0385 20.8301 26.8366 20.8301C25.6346 20.8301 24.6568 21.7763 24.6568 22.9395V23.3203C24.6568 23.8051 24.8272 24.2519 25.1123 24.6086C24.3938 24.9163 23.7749 25.4147 23.3284 26.0556C22.7938 25.3553 22.4771 24.4903 22.4771 23.5547C22.4771 21.2285 24.4327 19.3359 26.8366 19.3359C29.2404 19.3359 31.1961 21.2285 31.1961 23.5547C31.1961 24.4903 30.8793 25.3553 30.3448 26.0556Z" fill="#216DE0"/>
<path d="M30.1061 40.6641H26.8364C26.5021 40.6641 26.231 40.9264 26.231 41.25C26.231 41.5736 26.5021 41.8359 26.8364 41.8359H30.1061C30.4404 41.8359 30.7115 41.5736 30.7115 41.25C30.7115 40.9264 30.4404 40.6641 30.1061 40.6641Z" fill="#216DE0"/>
<path d="M30.1062 37.3828H21.5083C21.174 37.3828 20.9028 37.6451 20.9028 37.9688C20.9028 38.2924 21.174 38.5547 21.5083 38.5547H30.1062C30.4406 38.5547 30.7117 38.2924 30.7117 37.9688C30.7117 37.6451 30.4406 37.3828 30.1062 37.3828Z" fill="#216DE0"/>
<path d="M30.1062 34.1016H21.5083C21.174 34.1016 20.9028 34.3639 20.9028 34.6875C20.9028 35.0111 21.174 35.2735 21.5083 35.2735H30.1062C30.4406 35.2735 30.7117 35.0111 30.7117 34.6875C30.7117 34.3639 30.4406 34.1016 30.1062 34.1016Z" fill="#216DE0"/>
<path d="M19.35 30.992C19.2375 30.883 19.0813 30.8203 18.9214 30.8203C18.7621 30.8203 18.6059 30.883 18.4933 30.992C18.3807 31.101 18.3159 31.2521 18.3159 31.4062C18.3159 31.5604 18.3806 31.7115 18.4933 31.8205C18.6066 31.9295 18.7621 31.9922 18.9214 31.9922C19.0813 31.9922 19.2369 31.9295 19.35 31.8205C19.4626 31.7115 19.5275 31.5604 19.5275 31.4062C19.5275 31.2521 19.4627 31.101 19.35 30.992Z" fill="#216DE0"/>
<path d="M19.35 34.2733C19.2369 34.1643 19.0813 34.1016 18.9214 34.1016C18.7621 34.1016 18.6066 34.1643 18.4933 34.2733C18.3807 34.3822 18.3159 34.5334 18.3159 34.6875C18.3159 34.8416 18.3806 34.9928 18.4933 35.1018C18.6066 35.2108 18.7621 35.2735 18.9214 35.2735C19.0813 35.2735 19.2369 35.2108 19.35 35.1018C19.4626 34.9928 19.5275 34.8416 19.5275 34.6875C19.5275 34.5334 19.4627 34.3822 19.35 34.2733Z" fill="#216DE0"/>
<path d="M19.35 37.5545C19.2369 37.4455 19.0813 37.3828 18.9214 37.3828C18.7621 37.3828 18.6066 37.4455 18.4933 37.5545C18.3807 37.6635 18.3159 37.8146 18.3159 37.9688C18.3159 38.1229 18.3806 38.274 18.4933 38.383C18.6059 38.492 18.7621 38.5547 18.9214 38.5547C19.0813 38.5547 19.2375 38.492 19.35 38.383C19.4626 38.274 19.5275 38.1229 19.5275 37.9688C19.5275 37.8146 19.4627 37.6635 19.35 37.5545Z" fill="#216DE0"/>
<path d="M30.1062 30.8203H21.5083C21.174 30.8203 20.9028 31.0826 20.9028 31.4062C20.9028 31.7299 21.174 31.9922 21.5083 31.9922H30.1062C30.4406 31.9922 30.7117 31.7299 30.7117 31.4062C30.7117 31.0826 30.4406 30.8203 30.1062 30.8203Z" fill="#216DE0"/>
<path d="M43.7289 22.6359C43.1407 22.3073 42.4554 22.22 41.7992 22.3901C41.1431 22.5602 40.5946 22.9675 40.2551 23.5367L32.6355 36.308C32.5938 36.378 32.5674 36.4556 32.5581 36.536L32.0218 41.185C31.9952 41.4164 32.1125 41.6411 32.3208 41.7575C32.4148 41.81 32.5193 41.836 32.6235 41.836C32.7501 41.836 32.8763 41.7976 32.9826 41.7219L36.8749 38.9478C36.9422 38.8999 36.9985 38.839 37.0402 38.769L44.6597 25.9977C45.3608 24.8225 44.9433 23.3145 43.7289 22.6359ZM33.3788 39.984L33.6589 37.5564L35.4113 38.5355L33.3788 39.984ZM36.2942 37.6756L33.987 36.3865L40.1015 26.1379L42.4087 27.4269L36.2942 37.6756ZM43.611 25.4117L43.0141 26.4121L40.7069 25.123L41.3038 24.1226C41.4817 23.8245 41.7689 23.6112 42.1126 23.5221C42.4564 23.4329 42.8153 23.4787 43.1234 23.6508C43.4315 23.823 43.6519 24.101 43.744 24.4335C43.8361 24.7661 43.7889 25.1135 43.611 25.4117Z" fill="#216DE0"/>
</svg>
