<svg width="60" height="60" viewBox="0 0 60 60" fill="none" xmlns="http://www.w3.org/2000/svg">
<circle cx="30" cy="30" r="30" fill="#216DE0" fill-opacity="0.1"/>
<path d="M43.5 15H16.5C16.1022 15 15.7206 15.158 15.4393 15.4393C15.158 15.7206 15 16.1022 15 16.5V43.5C15 43.8978 15.158 44.2794 15.4393 44.5607C15.7206 44.842 16.1022 45 16.5 45H43.5C43.8978 45 44.2794 44.842 44.5607 44.5607C44.842 44.2794 45 43.8978 45 43.5V16.5C45 16.1022 44.842 15.7206 44.5607 15.4393C44.2794 15.158 43.8978 15 43.5 15ZM16 16.5C16 16.3674 16.0527 16.2402 16.1464 16.1464C16.2402 16.0527 16.3674 16 16.5 16H43.5C43.6326 16 43.7598 16.0527 43.8536 16.1464C43.9473 16.2402 44 16.3674 44 16.5V21H16V16.5ZM44 43.5C44 43.6326 43.9473 43.7598 43.8536 43.8536C43.7598 43.9473 43.6326 44 43.5 44H16.5C16.3674 44 16.2402 43.9473 16.1464 43.8536C16.0527 43.7598 16 43.6326 16 43.5V22H44V43.5Z" fill="#216DE0"/>
<path d="M41.5 20H29.5C29.1022 20 28.7206 19.842 28.4393 19.5607C28.158 19.2794 28 18.8978 28 18.5C28 18.1022 28.158 17.7206 28.4393 17.4393C28.7206 17.158 29.1022 17 29.5 17H41.5C41.8978 17 42.2794 17.158 42.5607 17.4393C42.842 17.7206 43 18.1022 43 18.5C43 18.8978 42.842 19.2794 42.5607 19.5607C42.2794 19.842 41.8978 20 41.5 20ZM29.5 18C29.3674 18 29.2402 18.0527 29.1464 18.1464C29.0527 18.2402 29 18.3674 29 18.5C29 18.6326 29.0527 18.7598 29.1464 18.8536C29.2402 18.9473 29.3674 19 29.5 19H41.5C41.6326 19 41.7598 18.9473 41.8536 18.8536C41.9473 18.7598 42 18.6326 42 18.5C42 18.3674 41.9473 18.2402 41.8536 18.1464C41.7598 18.0527 41.6326 18 41.5 18H29.5Z" fill="#216DE0"/>
<path d="M18.5 20C18.2033 20 17.9133 19.912 17.6666 19.7472C17.42 19.5824 17.2277 19.3481 17.1142 19.074C17.0006 18.7999 16.9709 18.4983 17.0288 18.2074C17.0867 17.9164 17.2296 17.6491 17.4393 17.4393C17.6491 17.2296 17.9164 17.0867 18.2074 17.0288C18.4983 16.9709 18.7999 17.0006 19.074 17.1142C19.3481 17.2277 19.5824 17.42 19.7472 17.6666C19.912 17.9133 20 18.2033 20 18.5C20 18.8978 19.842 19.2794 19.5607 19.5607C19.2794 19.842 18.8978 20 18.5 20ZM18.5 18C18.4011 18 18.3044 18.0293 18.2222 18.0843C18.14 18.1392 18.0759 18.2173 18.0381 18.3087C18.0002 18.4 17.9903 18.5006 18.0096 18.5975C18.0289 18.6945 18.0765 18.7836 18.1464 18.8536C18.2164 18.9235 18.3055 18.9711 18.4025 18.9904C18.4994 19.0097 18.6 18.9998 18.6913 18.9619C18.7827 18.9241 18.8608 18.86 18.9157 18.7778C18.9707 18.6956 19 18.5989 19 18.5C19 18.3674 18.9473 18.2402 18.8536 18.1464C18.7598 18.0527 18.6326 18 18.5 18Z" fill="#216DE0"/>
<path d="M22 20C21.7033 20 21.4133 19.912 21.1666 19.7472C20.92 19.5824 20.7277 19.3481 20.6142 19.074C20.5006 18.7999 20.4709 18.4983 20.5288 18.2074C20.5867 17.9164 20.7296 17.6491 20.9393 17.4393C21.1491 17.2296 21.4164 17.0867 21.7074 17.0288C21.9983 16.9709 22.2999 17.0006 22.574 17.1142C22.8481 17.2277 23.0824 17.42 23.2472 17.6666C23.412 17.9133 23.5 18.2033 23.5 18.5C23.5 18.8978 23.342 19.2794 23.0607 19.5607C22.7794 19.842 22.3978 20 22 20ZM22 18C21.9011 18 21.8044 18.0293 21.7222 18.0843C21.64 18.1392 21.5759 18.2173 21.5381 18.3087C21.5002 18.4 21.4903 18.5006 21.5096 18.5975C21.5289 18.6945 21.5765 18.7836 21.6464 18.8536C21.7164 18.9235 21.8055 18.9711 21.9025 18.9904C21.9994 19.0097 22.1 18.9998 22.1913 18.9619C22.2827 18.9241 22.3608 18.86 22.4157 18.7778C22.4707 18.6956 22.5 18.5989 22.5 18.5C22.5 18.3674 22.4473 18.2402 22.3536 18.1464C22.2598 18.0527 22.1326 18 22 18Z" fill="#216DE0"/>
<path d="M25.5 20C25.2033 20 24.9133 19.912 24.6666 19.7472C24.42 19.5824 24.2277 19.3481 24.1142 19.074C24.0006 18.7999 23.9709 18.4983 24.0288 18.2074C24.0867 17.9164 24.2296 17.6491 24.4393 17.4393C24.6491 17.2296 24.9164 17.0867 25.2074 17.0288C25.4983 16.9709 25.7999 17.0006 26.074 17.1142C26.3481 17.2277 26.5824 17.42 26.7472 17.6666C26.912 17.9133 27 18.2033 27 18.5C27 18.8978 26.842 19.2794 26.5607 19.5607C26.2794 19.842 25.8978 20 25.5 20ZM25.5 18C25.4011 18 25.3044 18.0293 25.2222 18.0843C25.14 18.1392 25.0759 18.2173 25.0381 18.3087C25.0002 18.4 24.9903 18.5006 25.0096 18.5975C25.0289 18.6945 25.0765 18.7836 25.1464 18.8536C25.2164 18.9235 25.3055 18.9711 25.4025 18.9904C25.4994 19.0097 25.6 18.9998 25.6913 18.9619C25.7827 18.9241 25.8608 18.86 25.9157 18.7778C25.9707 18.6956 26 18.5989 26 18.5C26 18.3674 25.9473 18.2402 25.8536 18.1464C25.7598 18.0527 25.6326 18 25.5 18Z" fill="#216DE0"/>
<path d="M27.5 31H19.5C19.3674 31 19.2402 30.9473 19.1464 30.8536C19.0527 30.7598 19 30.6326 19 30.5V24.5C19 24.3674 19.0527 24.2402 19.1464 24.1464C19.2402 24.0527 19.3674 24 19.5 24H27.5C27.6326 24 27.7598 24.0527 27.8536 24.1464C27.9473 24.2402 28 24.3674 28 24.5V30.5C28 30.6326 27.9473 30.7598 27.8536 30.8536C27.7598 30.9473 27.6326 31 27.5 31ZM20 30H27V25H20V30Z" fill="#216DE0"/>
<path d="M40.5 26H30.5C30.3674 26 30.2402 25.9473 30.1464 25.8536C30.0527 25.7598 30 25.6326 30 25.5C30 25.3674 30.0527 25.2402 30.1464 25.1464C30.2402 25.0527 30.3674 25 30.5 25H40.5C40.6326 25 40.7598 25.0527 40.8536 25.1464C40.9473 25.2402 41 25.3674 41 25.5C41 25.6326 40.9473 25.7598 40.8536 25.8536C40.7598 25.9473 40.6326 26 40.5 26Z" fill="#216DE0"/>
<path d="M40.5 28H30.5C30.3674 28 30.2402 27.9473 30.1464 27.8536C30.0527 27.7598 30 27.6326 30 27.5C30 27.3674 30.0527 27.2402 30.1464 27.1464C30.2402 27.0527 30.3674 27 30.5 27H40.5C40.6326 27 40.7598 27.0527 40.8536 27.1464C40.9473 27.2402 41 27.3674 41 27.5C41 27.6326 40.9473 27.7598 40.8536 27.8536C40.7598 27.9473 40.6326 28 40.5 28Z" fill="#216DE0"/>
<path d="M40.5 30H30.5C30.3674 30 30.2402 29.9473 30.1464 29.8536C30.0527 29.7598 30 29.6326 30 29.5C30 29.3674 30.0527 29.2402 30.1464 29.1464C30.2402 29.0527 30.3674 29 30.5 29H40.5C40.6326 29 40.7598 29.0527 40.8536 29.1464C40.9473 29.2402 41 29.3674 41 29.5C41 29.6326 40.9473 29.7598 40.8536 29.8536C40.7598 29.9473 40.6326 30 40.5 30Z" fill="#216DE0"/>
<path d="M40.5 35H35.5C35.3674 35 35.2402 34.9473 35.1464 34.8536C35.0527 34.7598 35 34.6326 35 34.5V32.5C35 32.3674 35.0527 32.2402 35.1464 32.1464C35.2402 32.0527 35.3674 32 35.5 32H40.5C40.6326 32 40.7598 32.0527 40.8536 32.1464C40.9473 32.2402 41 32.3674 41 32.5V34.5C41 34.6326 40.9473 34.7598 40.8536 34.8536C40.7598 34.9473 40.6326 35 40.5 35ZM36 34H40V33H36V34Z" fill="#216DE0"/>
<path d="M24.5 35H19.5C19.3674 35 19.2402 34.9473 19.1464 34.8536C19.0527 34.7598 19 34.6326 19 34.5V32.5C19 32.3674 19.0527 32.2402 19.1464 32.1464C19.2402 32.0527 19.3674 32 19.5 32H24.5C24.6326 32 24.7598 32.0527 24.8536 32.1464C24.9473 32.2402 25 32.3674 25 32.5V34.5C25 34.6326 24.9473 34.7598 24.8536 34.8536C24.7598 34.9473 24.6326 35 24.5 35ZM20 34H24V33H20V34Z" fill="#216DE0"/>
<path d="M32.5 35H27.5C27.3674 35 27.2402 34.9473 27.1464 34.8536C27.0527 34.7598 27 34.6326 27 34.5V32.5C27 32.3674 27.0527 32.2402 27.1464 32.1464C27.2402 32.0527 27.3674 32 27.5 32H32.5C32.6326 32 32.7598 32.0527 32.8536 32.1464C32.9473 32.2402 33 32.3674 33 32.5V34.5C33 34.6326 32.9473 34.7598 32.8536 34.8536C32.7598 34.9473 32.6326 35 32.5 35ZM28 34H32V33H28V34Z" fill="#216DE0"/>
<path d="M40.5 42H19.5C19.3674 42 19.2402 41.9473 19.1464 41.8536C19.0527 41.7598 19 41.6326 19 41.5V36.5C19 36.3674 19.0527 36.2402 19.1464 36.1464C19.2402 36.0527 19.3674 36 19.5 36H40.5C40.6326 36 40.7598 36.0527 40.8536 36.1464C40.9473 36.2402 41 36.3674 41 36.5V41.5C41 41.6326 40.9473 41.7598 40.8536 41.8536C40.7598 41.9473 40.6326 42 40.5 42ZM20 41H40V37H20V41Z" fill="#216DE0"/>
</svg>
