<svg width="24" height="34" viewBox="0 0 24 34" fill="none" xmlns="http://www.w3.org/2000/svg">
<path d="M12 0C5.36571 0 0 5.321 0 11.9C0 20.825 12 34 12 34C12 34 24 20.825 24 11.9C24 5.321 18.6343 0 12 0ZM12 16.15C10.8634 16.15 9.77327 15.7022 8.96954 14.9052C8.16582 14.1082 7.71429 13.0272 7.71429 11.9C7.71429 10.7728 8.16582 9.69183 8.96954 8.8948C9.77327 8.09777 10.8634 7.65 12 7.65C13.1366 7.65 14.2267 8.09777 15.0305 8.8948C15.8342 9.69183 16.2857 10.7728 16.2857 11.9C16.2857 13.0272 15.8342 14.1082 15.0305 14.9052C14.2267 15.7022 13.1366 16.15 12 16.15Z" fill="#216DE0"/>
</svg>
