<svg width="24" height="19" viewBox="0 0 24 19" fill="none" xmlns="http://www.w3.org/2000/svg">
<path d="M21 0H3C2.20461 0.000857281 1.44204 0.319598 0.879619 0.886283C0.317195 1.45297 0.000850835 2.22131 0 3.02273V15.9773C0.000850835 16.7787 0.317195 17.547 0.879619 18.1137C1.44204 18.6804 2.20461 18.9991 3 19H21C21.7954 18.9991 22.558 18.6804 23.1204 18.1137C23.6828 17.547 23.9991 16.7787 24 15.9773V3.02273C23.9991 2.22131 23.6828 1.45297 23.1204 0.886283C22.558 0.319598 21.7954 0.000857281 21 0ZM20.2404 4.99992L12.5261 11.0454C12.3756 11.1632 12.1905 11.2272 12 11.2272C11.8095 11.2272 11.6244 11.1632 11.4739 11.0454L3.75964 4.99992C3.66901 4.93095 3.59288 4.84452 3.53568 4.74566C3.47848 4.64679 3.44135 4.53746 3.42646 4.42401C3.41156 4.31056 3.41918 4.19526 3.44889 4.08481C3.4786 3.97436 3.5298 3.87095 3.59952 3.78061C3.66923 3.69027 3.75607 3.61479 3.85499 3.55855C3.95391 3.50232 4.06293 3.46645 4.17572 3.45304C4.28852 3.43962 4.40283 3.44893 4.51203 3.48042C4.62122 3.5119 4.72311 3.56494 4.81179 3.63645L12 9.26952L19.1882 3.63645C19.368 3.49968 19.5939 3.4397 19.8172 3.46947C20.0405 3.49924 20.2432 3.61637 20.3814 3.79553C20.5197 3.9747 20.5824 4.20149 20.556 4.42687C20.5296 4.65225 20.4162 4.85811 20.2404 4.99992Z" fill="#216DE0"/>
</svg>
