<svg width="70" height="70" viewBox="0 0 70 70" fill="none" xmlns="http://www.w3.org/2000/svg">
<circle cx="35" cy="35" r="35" fill="#216DE0"/>
<path d="M42.9949 35.022C42.9959 35.4884 42.8216 35.9405 42.5023 36.2997L31.7936 48.2788C31.43 48.6865 30.9076 48.9429 30.3413 48.9916C29.775 49.0402 29.2111 48.8772 28.7737 48.5383C28.3363 48.1994 28.0613 47.7124 28.0091 47.1845C27.9568 46.6566 28.1317 46.131 28.4953 45.7232L38.0903 35.022L28.838 24.3207C28.6601 24.1165 28.5272 23.8815 28.447 23.6293C28.3669 23.377 28.341 23.1125 28.3708 22.8509C28.4007 22.5893 28.4857 22.3358 28.621 22.1049C28.7563 21.874 28.9392 21.6704 29.1592 21.5056C29.3794 21.3228 29.6378 21.1843 29.9181 21.0989C30.1984 21.0134 30.4946 20.9829 30.7882 21.0091C31.0817 21.0354 31.3663 21.1178 31.6241 21.2514C31.8818 21.3849 32.1073 21.5666 32.2862 21.7851L42.6308 33.7642C42.8997 34.1337 43.0279 34.5765 42.9949 35.022Z" fill="white"/>
</svg>
