<svg width="221" height="24" viewBox="0 0 221 24" fill="none" xmlns="http://www.w3.org/2000/svg">
<path d="M0.397017 23H3.68892V14.7436H8.16335C8.23793 14.7436 8.30185 14.7436 8.37642 14.7436L12.8082 23H16.5582L11.7216 14.1683C14.3956 13.1776 15.7273 10.951 15.7273 8.02131C15.7273 4.00497 13.2344 1.18182 8.17401 1.18182H0.397017V23ZM3.68892 11.9098V4.00497H7.82244C11.0717 4.00497 12.4141 5.54972 12.4141 8.02131C12.4141 10.4822 11.0717 11.9098 7.86506 11.9098H3.68892ZM26.3248 23.3303C29.8936 23.3303 32.4185 21.5724 33.1429 18.9091L30.128 18.3658C29.5527 19.9105 28.1678 20.6989 26.3567 20.6989C23.6294 20.6989 21.7971 18.9304 21.7118 15.777H33.3453V14.6477C33.3453 8.73508 29.8084 6.4233 26.101 6.4233C21.5414 6.4233 18.5371 9.89631 18.5371 14.9247C18.5371 20.0064 21.4988 23.3303 26.3248 23.3303ZM21.7225 13.3906C21.8503 11.0682 23.5336 9.05469 26.1223 9.05469C28.5939 9.05469 30.2132 10.8871 30.2239 13.3906H21.7225ZM49.1417 10.6314C48.4812 8.08523 46.489 6.4233 42.9521 6.4233C39.2553 6.4233 36.6346 8.37287 36.6346 11.2706C36.6346 13.593 38.0408 15.1378 41.109 15.8196L43.8789 16.4268C45.4556 16.7784 46.1907 17.4815 46.1907 18.5043C46.1907 19.772 44.8377 20.7628 42.7496 20.7628C40.8427 20.7628 39.6175 19.9425 39.234 18.3338L36.1552 18.8026C36.6879 21.7003 39.0955 23.3303 42.771 23.3303C46.7234 23.3303 49.4613 21.2315 49.4613 18.2699C49.4613 15.9581 47.9911 14.5305 44.9869 13.8381L42.3874 13.2415C40.587 12.8153 39.8093 12.2081 39.82 11.1001C39.8093 9.84304 41.1729 8.94815 42.984 8.94815C44.9656 8.94815 45.8817 10.0455 46.2546 11.1428L49.1417 10.6314ZM63.3294 16.2138C63.34 18.9943 61.2733 20.3153 59.4835 20.3153C57.5126 20.3153 56.149 18.8878 56.149 16.6612V6.63636H52.9636V17.0447C52.9636 21.1037 55.1902 23.2131 58.3329 23.2131C60.7939 23.2131 62.4664 21.9134 63.2228 20.1662H63.3933V23H66.5254V6.63636H63.3294V16.2138ZM70.8054 23H73.9908V12.9112C73.9908 10.706 75.5355 9.17188 77.3466 9.17188C79.1151 9.17188 80.3402 10.3438 80.3402 12.1229V23H83.5149V12.5703C83.5149 10.5994 84.7188 9.17188 86.7962 9.17188C88.4794 9.17188 89.8643 10.1094 89.8643 12.3253V23H93.0497V12.027C93.0497 8.28764 90.9616 6.4233 88 6.4233C85.6456 6.4233 83.8771 7.55256 83.0888 9.29972H82.9183C82.2045 7.50994 80.7024 6.4233 78.5185 6.4233C76.3558 6.4233 74.7472 7.49929 74.0653 9.29972H73.8629V6.63636H70.8054V23ZM104.372 23.3303C107.941 23.3303 110.465 21.5724 111.19 18.9091L108.175 18.3658C107.6 19.9105 106.215 20.6989 104.404 20.6989C101.676 20.6989 99.8439 18.9304 99.7587 15.777H111.392V14.6477C111.392 8.73508 107.855 6.4233 104.148 6.4233C99.5882 6.4233 96.584 9.89631 96.584 14.9247C96.584 20.0064 99.5456 23.3303 104.372 23.3303ZM99.7694 13.3906C99.8972 11.0682 101.58 9.05469 104.169 9.05469C106.641 9.05469 108.26 10.8871 108.271 13.3906H99.7694ZM123.122 23H131.485C136.556 23 138.846 20.4751 138.846 17.13C138.846 13.7528 136.481 11.8459 134.318 11.7287V11.5156C136.321 11.0043 137.994 9.64062 137.994 6.91335C137.994 3.68537 135.757 1.18182 131.112 1.18182H123.122V23ZM126.414 20.1768V13.1882H131.282C133.924 13.1882 135.575 14.8928 135.575 16.9702C135.575 18.8026 134.329 20.1768 131.165 20.1768H126.414ZM126.414 10.6207V3.98366H130.909C133.519 3.98366 134.766 5.35795 134.766 7.16903C134.766 9.27841 133.04 10.6207 130.824 10.6207H126.414ZM152.861 16.2138C152.871 18.9943 150.805 20.3153 149.015 20.3153C147.044 20.3153 145.68 18.8878 145.68 16.6612V6.63636H142.495V17.0447C142.495 21.1037 144.721 23.2131 147.864 23.2131C150.325 23.2131 151.998 21.9134 152.754 20.1662H152.925V23H156.057V6.63636H152.861V16.2138ZM160.337 23H163.522V6.63636H160.337V23ZM161.945 4.11151C163.043 4.11151 163.959 3.25923 163.959 2.2152C163.959 1.17116 163.043 0.308238 161.945 0.308238C160.837 0.308238 159.932 1.17116 159.932 2.2152C159.932 3.25923 160.837 4.11151 161.945 4.11151ZM170.993 1.18182H167.807V23H170.993V1.18182ZM181.404 23.3196C184.387 23.3196 185.559 21.4979 186.134 20.4538H186.4V23H189.511V1.18182H186.326V9.28906H186.134C185.559 8.27699 184.472 6.4233 181.425 6.4233C177.473 6.4233 174.564 9.54474 174.564 14.8501C174.564 20.1449 177.43 23.3196 181.404 23.3196ZM182.107 20.603C179.262 20.603 177.782 18.0994 177.782 14.8182C177.782 11.5689 179.23 9.12926 182.107 9.12926C184.887 9.12926 186.379 11.3984 186.379 14.8182C186.379 18.2592 184.855 20.603 182.107 20.603ZM201.11 23.3303C204.679 23.3303 207.204 21.5724 207.928 18.9091L204.913 18.3658C204.338 19.9105 202.953 20.6989 201.142 20.6989C198.415 20.6989 196.582 18.9304 196.497 15.777H208.131V14.6477C208.131 8.73508 204.594 6.4233 200.886 6.4233C196.327 6.4233 193.322 9.89631 193.322 14.9247C193.322 20.0064 196.284 23.3303 201.11 23.3303ZM196.508 13.3906C196.635 11.0682 198.319 9.05469 200.907 9.05469C203.379 9.05469 204.998 10.8871 205.009 13.3906H196.508ZM211.665 23H214.85V13.0071C214.85 10.8658 216.501 9.32102 218.76 9.32102C219.42 9.32102 220.166 9.43821 220.422 9.51278V6.46591C220.102 6.4233 219.474 6.39133 219.069 6.39133C217.151 6.39133 215.511 7.47798 214.914 9.23579H214.744V6.63636H211.665V23Z" fill="#216DE0"/>
</svg>
