<svg width="25" height="32" viewBox="0 0 25 32" fill="none" xmlns="http://www.w3.org/2000/svg">
<path d="M10.9147 21.0716L10.6413 21.302C10.286 21.6153 9.83049 21.7811 9.36584 21.7811C9.15629 21.7811 8.94675 21.7443 8.74631 21.6798C8.08123 21.4679 7.58013 20.9242 7.41614 20.2424L6.83305 17.856L4.48248 18.0218L0 28.7746L4.56448 26.7567C4.5827 26.7475 4.59181 26.7475 4.61003 26.7383C5.08379 26.554 5.6031 26.7936 5.78532 27.2727L7.54369 31.9903L11.5069 22.4906L10.9147 21.0716Z" fill="white"/>
<path d="M12.4999 5.35254C9.97619 5.35254 7.92627 7.41648 7.92627 9.96876C7.93538 12.521 9.97619 14.585 12.4999 14.585C15.0235 14.585 17.0735 12.5303 17.0735 9.97797C17.0735 7.42569 15.0235 5.35254 12.4999 5.35254Z" fill="white"/>
<path d="M22.7665 9.82182L20.0606 8.10802C19.6871 7.87767 19.5322 7.39854 19.6962 6.98391L20.8897 3.98935C20.8988 3.96171 20.8988 3.94328 20.8988 3.91564C20.8988 3.81429 20.8168 3.74057 20.7166 3.74979L17.5279 3.97092C17.0905 3.99857 16.6897 3.70372 16.5803 3.27066L15.815 0.137895C15.7968 0.0733965 15.7513 0.0273264 15.6966 0.00889839C15.6419 -0.00952964 15.5782 0.00889839 15.5326 0.0457544L13.0818 2.12812C12.7447 2.41376 12.2436 2.41376 11.9065 2.12812L9.46485 0.0457544C9.4193 -0.000315621 9.35552 -0.00952964 9.30086 0.00889839C9.23708 0.0273264 9.19153 0.0733965 9.18242 0.137895L8.41711 3.27066C8.30779 3.70372 7.90691 3.99857 7.4696 3.97092L4.28084 3.74979C4.25351 3.74979 4.23529 3.74979 4.20795 3.759C4.11685 3.79586 4.07129 3.89721 4.10773 3.98935L5.30124 6.98391C5.46523 7.39854 5.31035 7.86845 4.93681 8.10802L2.23092 9.82182C2.17626 9.84946 2.14893 9.90475 2.14893 9.96925C2.14893 10.0337 2.17626 10.089 2.23092 10.1259L4.93681 11.8305C5.31035 12.0608 5.46523 12.54 5.30124 12.9546L4.10773 15.9399C4.08951 15.986 4.08951 16.0321 4.10773 16.0781C4.12596 16.115 4.1624 16.1518 4.20795 16.1703L4.22617 16.1795C4.25351 16.1795 4.27173 16.1795 4.28995 16.1795L7.4696 15.9491C7.48782 15.9491 7.51515 15.9491 7.53337 15.9491C7.95247 15.9491 8.3169 16.2348 8.41711 16.6494L9.18242 19.7822C9.20064 19.8467 9.24619 19.8927 9.30086 19.9112C9.35552 19.9388 9.4193 19.9204 9.46485 19.8835L11.9156 17.8012C12.2527 17.5155 12.7538 17.5155 13.0909 17.8012L15.5326 19.8835C15.5782 19.9296 15.6419 19.9388 15.6966 19.9204C15.7604 19.902 15.7968 19.8559 15.815 19.7914L16.5803 16.6586C16.6897 16.2163 17.0814 15.9307 17.5279 15.9584L20.7075 16.1887C20.7348 16.1979 20.7531 16.1979 20.7713 16.1887L20.7895 16.1795C20.8351 16.1703 20.8715 16.1334 20.8897 16.0874C20.9079 16.0413 20.9079 15.9952 20.8897 15.9491L19.6871 12.9546C19.5231 12.54 19.678 12.07 20.0515 11.8305L22.7665 10.1259C22.8212 10.089 22.8485 10.0337 22.8485 9.96925C22.8485 9.90475 22.8212 9.84946 22.7665 9.82182ZM12.4987 16.4375C8.96376 16.4375 6.10299 13.5535 6.10299 9.97846C6.10299 6.40342 8.97287 3.51022 12.4987 3.51022C16.0337 3.50101 18.8945 6.40342 18.8945 9.96925C18.8854 13.5351 16.0246 16.4283 12.4987 16.4375Z" fill="white"/>
<path d="M20.5176 18.013L18.167 17.8472L17.5839 20.2336C17.511 20.5284 17.3744 20.8049 17.1739 21.0444C16.4633 21.9013 15.206 22.0119 14.3587 21.2932L12.5001 19.736L12.3726 19.8374L13.3747 22.2423L17.4472 31.9999L19.2056 27.2823C19.2147 27.2639 19.2147 27.2547 19.2238 27.2362C19.4243 26.7663 19.9618 26.5544 20.4265 26.7571L25 28.7566L20.5176 18.013Z" fill="white"/>
</svg>
