<svg width="32" height="32" viewBox="0 0 32 32" fill="none" xmlns="http://www.w3.org/2000/svg">
<path d="M15.9995 6.45801C10.734 6.45801 6.45605 10.744 6.45605 16.0037C6.45605 21.2631 10.7411 25.5491 15.9995 25.5491C21.2577 25.5491 25.5427 21.2631 25.5427 16.0037C25.5427 10.744 21.2651 6.45801 15.9995 6.45801ZM20.7856 13.7154L15.0262 19.149C14.9198 19.2534 14.7759 19.311 14.6267 19.309C14.4707 19.3104 14.3209 19.2475 14.2128 19.1345L11.1987 16.04C10.978 15.8107 10.9828 15.4461 11.2101 15.223C11.437 15 11.8013 15.0014 12.0268 15.2262L14.6415 17.914L19.9867 12.8726C20.2193 12.6518 20.5867 12.6618 20.8075 12.8944C21.0282 13.1271 21.0182 13.4946 20.7856 13.7154Z" fill="white"/>
<path d="M29.7048 19.4833L32 16.0037L29.7048 12.5238C29.6376 12.4205 29.6044 12.2985 29.6104 12.1751L29.8427 8.00539L26.1316 6.12401C26.0218 6.06867 25.9327 5.97957 25.8774 5.86975L24.0035 2.15749L19.8348 2.3899C19.7114 2.39586 19.5894 2.36294 19.4861 2.2954L16 0L12.5209 2.2954C12.4177 2.36294 12.2957 2.39586 12.1726 2.3899L8.00355 2.15749L6.1226 5.86975C6.06727 5.97957 5.97819 6.06867 5.8684 6.12401L2.15699 7.99801L2.38935 12.168C2.3953 12.2911 2.3624 12.4132 2.29516 12.5167L0 16.0037L2.29516 19.4833C2.3624 19.5868 2.3953 19.7086 2.38935 19.832L2.15699 24.0017L5.8684 25.876C5.97819 25.9313 6.06727 26.0204 6.1226 26.1303L7.99645 29.8425L12.1652 29.6098H12.1941C12.3073 29.6112 12.4182 29.6439 12.5139 29.7043L15.9926 32L19.4717 29.7043C19.5749 29.6371 19.6969 29.6041 19.8201 29.6098L23.9891 29.8425L25.8629 26.1303C25.9183 26.0204 26.0073 25.9313 26.1171 25.876L29.8283 24.0017L29.5959 19.832C29.6021 19.7083 29.6396 19.5883 29.7048 19.4833ZM16 26.7114C10.0953 26.7114 5.29447 21.9095 5.29447 16.0037C5.29447 10.0976 10.0953 5.29569 16 5.29569C21.9047 5.29569 26.7052 10.0976 26.7052 16.0037C26.7052 21.9095 21.9047 26.7114 16 26.7114Z" fill="white"/>
</svg>
