<svg width="32" height="32" viewBox="0 0 32 32" fill="none" xmlns="http://www.w3.org/2000/svg">
<path d="M29.1421 27.8716V0L28.2702 0.0891598C24.7733 0.441715 21.3434 1.46127 18.1057 3.11106L16.5708 3.88832V31.6497L17.6885 31.0831C21.0389 29.3829 24.5863 28.331 28.2027 27.9648L29.1421 27.8716Z" fill="white"/>
<path d="M32.0003 4.12036H30.286V28.5134C30.2871 28.8768 30.0586 29.1804 29.7615 29.2103L28.298 29.3567C27.8756 29.3992 27.4543 29.4519 27.0347 29.5149C26.8985 29.535 26.7632 29.5615 26.6279 29.5847C26.3449 29.6306 26.0626 29.6772 25.781 29.7317C25.617 29.7637 25.454 29.8011 25.2905 29.8361C25.0386 29.8899 24.7861 29.9433 24.5347 30.0039C24.3631 30.0458 24.1918 30.0927 24.0168 30.138C23.7774 30.1999 23.538 30.2632 23.3003 30.3323C23.122 30.384 22.9443 30.4388 22.7671 30.494C22.5358 30.5637 22.3056 30.6389 22.0757 30.7172C21.8969 30.7771 21.718 30.8404 21.5397 30.9044C21.3112 30.9867 21.0861 31.0704 20.8603 31.1582C20.6837 31.228 20.5068 31.2978 20.3308 31.3672C20.1048 31.4601 19.8799 31.556 19.6558 31.6551C19.4845 31.731 19.3129 31.8072 19.1377 31.8872C19.0593 31.9236 18.9814 31.9624 18.9033 31.9995H32.0003V4.12036Z" fill="white"/>
<path d="M3.72886 0.0891598L2.85693 0V27.8736L3.87115 27.9788C7.48524 28.3474 11.0296 29.4057 14.3744 31.115L15.4282 31.6497V3.88832L13.8951 3.11174C10.6571 1.46161 7.22659 0.441715 3.72886 0.0891598Z" fill="white"/>
<path d="M0 4.12036V31.9981H13.1062C13.0359 31.9644 12.9656 31.9283 12.8947 31.8963C12.7312 31.8205 12.5663 31.748 12.4017 31.6748C12.1695 31.572 11.9377 31.472 11.7038 31.3764C11.5348 31.3066 11.3651 31.2389 11.1952 31.1729C10.9633 31.08 10.7306 30.9925 10.4977 30.9108C10.3261 30.8496 10.1548 30.788 9.98344 30.7294C9.74851 30.6502 9.51302 30.5749 9.27698 30.5011C9.10566 30.4473 8.93407 30.3936 8.75885 30.3435C8.51945 30.2738 8.27866 30.2098 8.03815 30.1468C7.86683 30.1016 7.69524 30.0556 7.52392 30.0138C7.27476 29.9539 7.02449 29.9001 6.77421 29.8467C6.61015 29.8116 6.44609 29.7769 6.28175 29.7412C6.00552 29.6878 5.72846 29.6425 5.4514 29.5969C5.31133 29.5741 5.17238 29.5469 5.0326 29.5275C4.61352 29.4656 4.19444 29.4128 3.77535 29.3692L2.23714 29.2103C1.94055 29.1794 1.71315 28.8761 1.71427 28.5134V4.12036H0Z" fill="white"/>
</svg>
