<svg width="32" height="32" viewBox="0 0 32 32" fill="none" xmlns="http://www.w3.org/2000/svg">
<path d="M13.1875 17.0654H18.8125V19.1987H13.1875V17.0654Z" fill="white"/>
<path d="M25.9612 19.2004H20.6875V20.2671C20.6875 20.8565 20.2681 21.3337 19.75 21.3337H12.25C11.7319 21.3337 11.3125 20.8565 11.3125 20.2671V19.2004H6.03882C4.82666 19.2004 3.75464 18.3213 3.37085 17.0129L0 5.50537V28.8002C0 30.5646 1.26172 32.0002 2.8125 32.0002H29.1875C30.7383 32.0002 32 30.5646 32 28.8002V5.5062L28.6289 17.0129C28.2454 18.3213 27.1733 19.2004 25.9612 19.2004Z" fill="white"/>
<path d="M19.7498 0H12.2498C10.699 0 9.43726 1.43553 9.43726 3.19994V4.26659H1.61279L5.14868 16.3372C5.27686 16.7736 5.63477 17.0664 6.03857 17.0664H11.3123V15.9997C11.3123 15.4103 11.7317 14.9331 12.2498 14.9331H19.7498C20.2678 14.9331 20.6873 15.4103 20.6873 15.9997V17.0664H25.9609C26.3647 17.0664 26.7227 16.7736 26.8508 16.3372L30.387 4.26659H22.5623V3.19994C22.5623 1.43553 21.3005 0 19.7498 0ZM11.3123 4.26659V3.19994C11.3123 2.61134 11.7324 2.1333 12.2498 2.1333H19.7498C20.2671 2.1333 20.6873 2.61134 20.6873 3.19994V4.26659H11.3123Z" fill="white"/>
</svg>
