<svg width="32" height="32" viewBox="0 0 32 32" fill="none" xmlns="http://www.w3.org/2000/svg">
<path d="M23.3184 7.11721L23.3493 7.35479L22.9933 7.4285L22.9459 7.93459H23.3723L23.9396 7.87996L24.2325 7.53182L23.9212 7.41073L23.7508 7.21461L23.4948 6.8L23.3723 6.21362L22.8913 6.31168L22.7563 6.51833V6.7513L22.988 6.90991L23.3184 7.11721Z" fill="white"/>
<path d="M22.9081 7.31201L22.9338 6.9948L22.6515 6.87305L22.2566 6.96452L21.9637 7.43442V7.73912H22.3053L22.9081 7.31201Z" fill="white"/>
<path d="M14.7805 8.6593L14.6936 8.88305H14.2731V9.10023H14.3731C14.3731 9.10023 14.379 9.1463 14.3876 9.20685L14.6456 9.18513L14.8068 9.0851L14.8489 8.88305L15.0575 8.86529L15.1398 8.69549L14.9483 8.65601L14.7805 8.6593Z" fill="white"/>
<path d="M13.6966 9.05375L13.6802 9.26632L13.9849 9.24066L14.0165 9.02743L13.8335 8.8833L13.6966 9.05375Z" fill="white"/>
<path d="M31.9968 15.8348C31.9922 15.3669 31.9685 14.9023 31.9244 14.4449C31.7763 12.9201 31.4117 11.4584 30.8655 10.0882C30.8247 9.9862 30.7872 9.88287 30.7437 9.78218C30.0159 8.06254 28.9938 6.49689 27.7427 5.14578C27.6605 5.05759 27.5769 4.97072 27.4933 4.88517C27.257 4.63969 27.0142 4.40014 26.7628 4.17046C23.9184 1.58079 20.1409 0 16 0C11.8243 0 8.01976 1.60908 5.1675 4.23824C4.50281 4.85095 3.89208 5.51959 3.33795 6.23562C1.24778 8.93914 0 12.3258 0 16C0 24.8233 7.17803 32.0007 16.0007 32.0007C22.2067 32.0007 27.5947 28.4469 30.2468 23.2689C30.8141 22.1619 31.2557 20.9819 31.5532 19.7453C31.6289 19.4314 31.694 19.1162 31.7506 18.797C31.9119 17.8882 32.0001 16.9536 32.0001 16C32.0007 15.9447 31.9974 15.8901 31.9968 15.8348ZM28.9852 9.43996L29.078 9.33598C29.1998 9.57224 29.3136 9.81246 29.4222 10.056L29.2709 10.05L28.9852 10.0895V9.43996ZM26.6733 6.64825L26.6759 5.93354C26.9273 6.20008 27.1695 6.47451 27.4012 6.75881L27.1129 7.1879L26.1053 7.17869L26.0422 6.96875L26.6733 6.64825ZM7.37218 4.87201V4.84502H7.69268L7.72032 4.73512H8.24483V4.96414L8.09412 5.16552H7.37152L7.37218 4.87201ZM7.88419 5.58606C7.88419 5.58606 8.20469 5.53143 8.23233 5.53143C8.25997 5.53143 8.23233 5.85128 8.23233 5.85128L7.50972 5.89669L7.37218 5.73216L7.88419 5.58606ZM30.0047 11.9375H28.8339L28.1205 11.4064L27.3696 11.4795V11.9375H27.132L26.8753 11.7545L25.5749 11.4248V10.5824L23.927 10.7108L23.4163 10.9852H22.7621L22.4416 10.953L21.6473 11.3939V12.2238L20.0237 13.3952L20.1586 13.8954H20.4877L20.4015 14.3719L20.1698 14.4568L20.1573 15.7019L21.5604 17.2998H22.1712L22.208 17.2024H23.3057L23.6223 16.9095H24.2449L24.5864 17.2518L25.5144 17.3478L25.3913 18.5818L26.4212 20.4002L25.879 21.4367L25.9158 21.925L26.3429 22.3508V23.5249L26.9036 24.2791V25.2544H27.388C24.6924 28.5641 20.5897 30.6838 15.9994 30.6838C7.90327 30.6845 1.31622 24.0968 1.31622 16C1.31622 13.9619 1.73478 12.0191 2.48832 10.2534V9.79535L3.0135 9.15763C3.19579 8.81344 3.39125 8.4778 3.59987 8.15072L3.62357 8.41726L3.01416 9.15763C2.82528 9.51433 2.6489 9.87893 2.48898 10.2534V11.0892L3.09905 11.3827V12.5443L3.68411 13.5426L4.15993 13.6157L4.22113 13.2735L3.65976 12.4074L3.54986 11.5657H3.87891L4.01778 12.4317L4.82923 13.6157L4.61995 13.9981L5.13591 14.7871L6.41725 15.1043V14.897L6.92992 14.9701L6.88122 15.336L7.28399 15.4097L7.9059 15.5795L8.78448 16.5805L9.90657 16.6654L10.0165 17.5808L9.24846 18.1178L9.21226 18.9352L9.10235 19.4354L10.2132 20.826L10.2981 21.3024C10.2981 21.3024 10.7009 21.4117 10.7503 21.4117C10.799 21.4117 11.6532 22.0586 11.6532 22.0586V24.5719L11.9579 24.6575L11.7506 25.8171L12.2633 26.5009L12.1685 27.6499L12.8457 28.8405L13.7151 29.5999L14.589 29.6157L14.6746 29.3347L14.0323 28.7937L14.0691 28.5252L14.1843 28.1962L14.2086 27.8605L13.7743 27.8474L13.5551 27.5723L13.9158 27.2255L13.9645 26.9635L13.5617 26.8484L13.5854 26.6049L14.1593 26.518L15.0319 26.0988L15.3248 25.5617L16.2402 24.3903L16.0323 23.4742L16.3133 22.9866L17.155 23.0122L17.7217 22.5634L17.9046 20.7957L18.5331 19.9974L18.643 19.4847L18.0698 19.3011L17.6914 18.6805L16.3982 18.6674L15.3728 18.2764L15.3241 17.5453L14.9819 16.9471L14.0547 16.9332L13.5189 16.0922L13.0431 15.8599L13.0188 16.1165L12.1527 16.1678L11.8355 15.7263L10.9319 15.5426L10.1876 16.4028L9.01614 16.204L8.93124 14.8839L8.07636 14.7378L8.41923 14.0902L8.32117 13.7184L7.19778 14.4693L6.49096 14.383L6.23891 13.8309L6.3929 13.2616L6.78251 12.5436L7.67951 12.0895L9.41167 12.0889L9.40706 12.6173L10.0296 12.9069L9.98028 12.004L10.4291 11.5525L11.3347 10.9576L11.3965 10.539L12.2995 9.59923L13.2597 9.06747L13.1748 8.99771L13.825 8.38567L14.0632 8.44885L14.1725 8.58573L14.4192 8.31196L14.4798 8.28498L14.2093 8.24681L13.9349 8.15533V7.89208L14.0803 7.77297H14.4008L14.5476 7.83746L14.6746 8.09412L14.8299 8.07043V8.04806L14.8747 8.06319L15.3248 7.99409L15.3886 7.77428L15.6453 7.83878V8.07701L15.4071 8.24088H15.4077L15.4426 8.50215L16.258 8.75355C16.258 8.75355 16.2587 8.75684 16.26 8.76342L16.4475 8.74763L16.4601 8.39422L15.8138 8.10005L15.7769 7.93025L16.3133 7.7473L16.337 7.23397L15.7763 6.89241L15.7394 6.02699L14.9707 6.40475H14.6904L14.7641 5.74598L13.7177 5.49919L13.2847 5.82627V6.82397L12.5061 7.07076L12.1942 7.72097L11.8559 7.7756V6.94374L11.1241 6.84239L10.7582 6.60416L10.6107 6.06516L11.9197 5.29912L12.5601 5.10432L12.6246 5.53473L12.9813 5.5163L13.0089 5.29978L13.3821 5.24647L13.3886 5.17079L13.2281 5.10432L13.1912 4.8753L13.6499 4.83647L13.927 4.54821L13.9421 4.52716L13.9454 4.52847L14.0296 4.4416L14.9938 4.31985L15.4202 4.68181L14.3021 5.2774L15.7249 5.61304L15.9092 5.13723H16.5311L16.7509 4.72261L16.3113 4.61271V4.08819L14.9326 3.47747L13.9809 3.58737L13.4439 3.86838L13.4808 4.55151L12.9194 4.46595L12.8332 4.08819L13.3709 3.59987L12.3949 3.55117L12.1145 3.63607L11.9928 3.96513L12.3587 4.02699L12.2856 4.3929L11.6637 4.42975L11.5663 4.67326L10.6641 4.69826C10.6641 4.69826 10.639 4.18625 10.6028 4.18625C10.5667 4.18625 11.3103 4.17375 11.3103 4.17375L11.848 3.64858L11.5545 3.50182L11.1642 3.88089L10.5166 3.84403L10.1264 3.30701H9.2965L8.43042 3.95394H9.2241L9.2965 4.18625L9.09051 4.37776L9.96909 4.40211L10.1033 4.71932L9.1142 4.68247L9.06616 4.43831L8.44424 4.30406L8.11453 4.1211L7.37415 4.12702C9.79798 2.36131 12.7786 1.31622 16 1.31622C19.7131 1.31622 23.1057 2.70418 25.694 4.98454L25.5196 5.29649L24.8424 5.56171L24.5568 5.87168L24.6226 6.23298L24.9721 6.28168L25.1827 6.80817L25.7855 6.56533L25.8849 7.26951H25.7032L25.2083 7.19646L24.6595 7.28859L24.1284 8.03884L23.3689 8.15796L23.259 8.80818L23.5795 8.88386L23.4867 9.30176L22.7325 9.1504L22.0408 9.30176L21.8941 9.68676L22.0139 10.4949L22.4199 10.6851L23.1011 10.6812L23.5611 10.6397L23.7013 10.2738L24.4199 9.33993L24.8931 9.43667L25.359 9.01548L25.4459 9.34454L26.5924 10.1178L26.4522 10.306L25.9356 10.2784L26.1343 10.5601L26.4522 10.6298L26.8247 10.4745L26.8168 10.0257L26.982 9.94276L26.849 9.80193L26.0843 9.37547L25.8829 8.80884H26.5186L26.722 9.01022L27.2695 9.48208L27.2926 10.0527L27.8599 10.6568L28.0711 9.82891L28.464 9.61436L28.5377 10.2916L28.9214 10.7128L29.6868 10.6996C29.8349 11.0806 29.9678 11.4683 30.0843 11.8638L30.0047 11.9375ZM8.72723 7.26951L9.11157 7.08655L9.45905 7.16948L9.33927 7.63608L8.96415 7.7552L8.72723 7.26951ZM10.7667 8.3679V8.66997H9.8888L9.55974 8.5785L9.64201 8.3679L10.0639 8.1935H10.6404V8.3679H10.7667ZM11.1708 8.78909V9.08195L10.951 9.22345L10.6772 9.27412C10.6772 9.27412 10.6772 8.83516 10.6772 8.78909H11.1708ZM10.9234 8.66997V8.32183L11.2254 8.59692L10.9234 8.66997ZM11.0609 9.37415V9.65912L10.851 9.86971H10.3844L10.4574 9.54987L10.6779 9.53078L10.7233 9.42088L11.0609 9.37415ZM9.89867 8.78909H10.3837L9.76178 9.65846L9.50512 9.52091L9.5604 9.155L9.89867 8.78909ZM11.8849 9.27412V9.55842H11.4183L11.2906 9.37415V9.10959H11.3274L11.8849 9.27412ZM11.4538 8.8832L11.5867 8.74368L11.8111 8.8832L11.6315 9.03128L11.4538 8.8832ZM30.2429 12.6785L30.289 12.6246C30.3081 12.7075 30.3285 12.7904 30.3469 12.8747L30.2429 12.6785Z" fill="white"/>
<path d="M2.48901 9.79518V10.2532C2.64893 9.87942 2.82531 9.51483 3.01419 9.15747L2.48901 9.79518Z" fill="white"/>
</svg>
