<svg width="22" height="32" viewBox="0 0 22 32" fill="none" xmlns="http://www.w3.org/2000/svg">
<path d="M4.51505 5.37146C5.21736 4.85371 6.07003 4.57317 6.94661 4.57145H15.0518C15.9284 4.57317 16.7811 4.85371 17.4834 5.37146C18.0261 5.77506 18.4563 6.30784 18.7339 6.92004C18.9785 6.35866 19.1046 5.75397 19.1044 5.14289C19.1027 3.93097 18.6142 2.76917 17.746 1.91222C16.8778 1.05526 15.7007 0.573095 14.4729 0.571432C13.9826 0.570675 13.4955 0.649835 13.0313 0.805719C12.8862 0.850941 12.7292 0.840744 12.5913 0.777147C11.5581 0.265953 10.4182 -0.000154133 9.26239 6.69765e-08C7.36733 0.00247329 5.54278 0.709556 4.15226 1.98037C2.76174 3.25118 1.90733 4.99243 1.75928 6.85718H3.29348C3.57443 6.27265 3.99334 5.76315 4.51505 5.37146Z" fill="#CCCCCC"/>
<path d="M17.9464 8.57054C17.9464 7.81277 17.6414 7.08604 17.0986 6.55022C16.5557 6.0144 15.8194 5.71338 15.0517 5.71338H6.94648C6.17875 5.71338 5.44247 6.0144 4.8996 6.55022C4.35674 7.08604 4.05176 7.81277 4.05176 8.57054V13.7134C4.05176 15.5321 4.78371 17.2762 6.08658 18.5622C7.38946 19.8482 9.15654 20.5706 10.9991 20.5706C12.8416 20.5706 14.6087 19.8482 15.9116 18.5622C17.2145 17.2762 17.9464 15.5321 17.9464 13.7134V8.57054ZM8.68331 11.4277C8.68331 11.5792 8.62231 11.7246 8.51374 11.8318C8.40517 11.9389 8.25791 11.9991 8.10436 11.9991C7.95082 11.9991 7.80356 11.9389 7.69499 11.8318C7.58641 11.7246 7.52542 11.5792 7.52542 11.4277V10.2848C7.52542 10.1333 7.58641 9.98793 7.69499 9.88077C7.80356 9.7736 7.95082 9.7134 8.10436 9.7134C8.25791 9.7134 8.40517 9.7736 8.51374 9.88077C8.62231 9.98793 8.68331 10.1333 8.68331 10.2848V11.4277ZM14.4727 11.4277C14.4727 11.5792 14.4117 11.7246 14.3032 11.8318C14.1946 11.9389 14.0473 11.9991 13.8938 11.9991C13.7403 11.9991 13.593 11.9389 13.4844 11.8318C13.3759 11.7246 13.3149 11.5792 13.3149 11.4277V10.2848C13.3149 10.1333 13.3759 9.98793 13.4844 9.88077C13.593 9.7736 13.7403 9.7134 13.8938 9.7134C14.0473 9.7134 14.1946 9.7736 14.3032 9.88077C14.4117 9.98793 14.4727 10.1333 14.4727 10.2848V11.4277Z" fill="#CCCCCC"/>
<path d="M2.31625 11.9997H2.89519V9.14258H2.31625C2.1627 9.14258 2.01545 9.20278 1.90687 9.30995C1.7983 9.41711 1.7373 9.56246 1.7373 9.71401V11.4283C1.7373 11.5799 1.7983 11.7252 1.90687 11.8324C2.01545 11.9395 2.1627 11.9997 2.31625 11.9997Z" fill="#CCCCCC"/>
<path d="M19.1045 11.9997H19.6834C19.837 11.9997 19.9842 11.9395 20.0928 11.8324C20.2014 11.7252 20.2624 11.5799 20.2624 11.4283V9.71401C20.2624 9.56246 20.2014 9.41711 20.0928 9.30995C19.9842 9.20278 19.837 9.14258 19.6834 9.14258H19.1045V11.9997Z" fill="#CCCCCC"/>
<path d="M16.0079 22.6004L14.6242 22.4004L13.4258 25.5261L15.3247 27.0233L16.4479 23.3204C16.4717 23.2455 16.4789 23.1663 16.4689 23.0884C16.4589 23.0105 16.432 22.9357 16.39 22.869C16.3496 22.7997 16.2946 22.7399 16.2286 22.6935C16.1627 22.6472 16.0874 22.6154 16.0079 22.6004Z" fill="#CCCCCC"/>
<path d="M5.61012 22.869C5.56813 22.9357 5.54122 23.0105 5.53123 23.0884C5.52124 23.1663 5.5284 23.2455 5.55223 23.3204L6.67538 27.0233L8.37168 25.6861L8.57431 25.5261L7.3759 22.4004L5.96328 22.6061C5.88916 22.6233 5.81949 22.6556 5.75869 22.7009C5.69789 22.7461 5.64729 22.8034 5.61012 22.869Z" fill="#CCCCCC"/>
<path d="M12.1927 25.5139L13.6575 21.6911L13.6285 21.2739C11.9267 21.8606 10.0736 21.8606 8.37172 21.2739L8.34277 21.6911L9.8075 25.5139C9.84742 25.6218 9.85329 25.739 9.82436 25.8502C9.79542 25.9614 9.73302 26.0613 9.6454 26.1368L11.0001 27.2568L12.3549 26.1368C12.2672 26.0613 12.2048 25.9614 12.1759 25.8502C12.147 25.739 12.1528 25.6218 12.1927 25.5139Z" fill="#CCCCCC"/>
<path d="M6.72732 28.4462C6.62547 28.5269 6.49897 28.5712 6.36838 28.5719C6.30916 28.5736 6.25017 28.5639 6.1947 28.5434C6.10455 28.5163 6.02253 28.4677 5.9559 28.4019C5.88926 28.3362 5.84005 28.2552 5.81259 28.1662L4.5505 24.0005H4.0526C2.97816 24.0017 1.94808 24.4235 1.18833 25.1734C0.428589 25.9233 0.00122583 26.94 0 28.0005V32.0005H10.421V28.2691L8.72468 26.8691L6.72732 28.4462Z" fill="#CCCCCC"/>
<path d="M17.9475 24.0005H17.4496L16.1875 28.1662C16.16 28.2552 16.1108 28.3362 16.0442 28.4019C15.9776 28.4677 15.8955 28.5163 15.8054 28.5434C15.7499 28.5639 15.6909 28.5736 15.6317 28.5719C15.5011 28.5712 15.3746 28.5269 15.2728 28.4462L13.2754 26.8691L11.5791 28.2691V32.0005H22.0001V28.0005C21.9989 26.94 21.5715 25.9233 20.8118 25.1734C20.052 24.4235 19.0219 24.0017 17.9475 24.0005Z" fill="#CCCCCC"/>
</svg>
