<svg width="32" height="32" viewBox="0 0 32 32" fill="none" xmlns="http://www.w3.org/2000/svg">
<path d="M16.1633 16.1676L16.1643 16.1654L15.2025 13.2808L13.2781 15.2058L16.1633 16.1676Z" fill="white"/>
<path d="M2.52332 4.94694L4.9476 2.52246L5.75563 3.33069L3.33135 5.75497L2.52332 4.94694Z" fill="white"/>
<path d="M5.75534 4.94743L7.3718 6.56378C7.51633 6.70795 7.57278 6.91874 7.51985 7.11604C7.46711 7.31335 7.31281 7.46748 7.11554 7.52042C6.91827 7.57317 6.70771 7.51671 6.56318 7.37254L4.94673 5.75619L4.13928 6.56378L12.2206 14.6471L13.0292 13.8383L8.18041 8.98869C7.9638 8.76423 7.96712 8.4081 8.18744 8.18755C8.40776 7.967 8.76422 7.96387 8.98864 8.18052L13.8366 13.0305L14.6447 12.2226L6.56318 4.13867L5.75534 4.94743Z" fill="white"/>
<path d="M1.71435 4.13896L4.13922 1.71448L2.92708 0.502534C2.49425 0.069123 1.86279 -0.100022 1.27137 0.0583805C0.679554 0.216588 0.217236 0.67871 0.058638 1.27033C-0.100155 1.86195 0.0687946 2.49321 0.50201 2.92643L1.71435 4.13896Z" fill="white"/>
<path d="M26.6943 2.83963C26.6558 2.69197 26.5596 2.56599 26.4275 2.48962C26.2955 2.41345 26.1382 2.39314 25.991 2.43318L17.6993 4.65726L27.9127 7.39269L26.6943 2.83963Z" fill="white"/>
<path d="M28.7186 8.7926L7.02031 2.97949L15.8569 11.818C15.9151 11.8772 15.9594 11.9485 15.9868 12.0271C15.9868 12.0321 15.9936 12.0355 15.9954 12.0407L17.2524 15.806C17.2821 15.8988 17.2997 15.9949 17.305 16.0918L23.6481 17.795C23.9528 17.8771 24.1337 18.1906 24.0516 18.4956C23.97 18.8003 23.6565 18.9812 23.3514 18.8992L16.7755 17.1328C16.5942 17.249 16.3837 17.311 16.1684 17.3115C16.0448 17.3121 15.9213 17.293 15.804 17.2543L12.0398 15.997C12.0347 15.997 12.0318 15.9906 12.0265 15.989C11.9478 15.9619 11.8759 15.9177 11.8163 15.8593L4.52473 8.56638L0.0263624 25.364C-0.0132872 25.5105 0.0072212 25.6672 0.0831999 25.7986C0.159179 25.9301 0.284182 26.026 0.431061 26.0651L22.5086 31.9796C22.6551 32.0193 22.8118 31.9987 22.943 31.9228C23.0747 31.8468 23.1706 31.7217 23.2096 31.575L29.1231 9.49353C29.1623 9.34682 29.1418 9.19054 29.066 9.05906C28.9901 8.92779 28.8651 8.83167 28.7186 8.7926ZM6.26638 20.8257C6.22732 20.9723 6.13142 21.0971 6.00036 21.1731C5.86891 21.2487 5.71305 21.2692 5.56656 21.2299L3.90948 20.7865C3.60459 20.7046 3.42372 20.3911 3.50537 20.0863C3.58721 19.7814 3.9005 19.6005 4.20539 19.6823L5.86266 20.1258C6.00895 20.1651 6.13396 20.2608 6.20955 20.3921C6.28533 20.5235 6.30584 20.6796 6.26638 20.8257ZM7.15391 17.5139C7.11484 17.6604 7.01894 17.7853 6.88788 17.8609C6.75644 17.9367 6.60038 17.9572 6.45389 17.9181L4.79701 17.4739C4.49192 17.392 4.31105 17.0783 4.39309 16.7735C4.47493 16.4686 4.78861 16.2879 5.0933 16.3696L6.75058 16.8138C6.89706 16.853 7.02187 16.9492 7.09746 17.0804C7.17324 17.2119 7.19356 17.3674 7.15391 17.5139ZM22.2739 25.1153C22.2346 25.2618 22.1385 25.3864 22.0075 25.4624C21.8762 25.5382 21.7201 25.5587 21.5737 25.5193L8.87857 22.118C8.68129 22.0653 8.52758 21.9113 8.47445 21.714C8.42172 21.5167 8.47816 21.3061 8.6225 21.1617C8.76704 21.0176 8.9774 20.9611 9.17467 21.0139L21.8698 24.4163C22.1743 24.4982 22.3551 24.8105 22.2739 25.1153ZM23.161 21.8004C23.1219 21.9469 23.026 22.0717 22.895 22.1473C22.7635 22.2233 22.6077 22.2438 22.4612 22.2045L9.76609 18.8033C9.4612 18.7214 9.28053 18.4081 9.36198 18.1031C9.44382 17.7982 9.7573 17.6173 10.0622 17.6989L22.7573 21.1008C22.904 21.1401 23.0292 21.2364 23.1051 21.3682C23.1811 21.4997 23.201 21.6566 23.161 21.8033V21.8004ZM24.9325 15.1758C24.8657 15.4254 24.6396 15.5989 24.3813 15.5993C24.3313 15.5993 24.2815 15.5928 24.2331 15.5797L18.7074 14.1011C18.5093 14.0492 18.354 13.895 18.3009 13.6971C18.2474 13.4996 18.304 13.2884 18.4491 13.1437C18.5939 12.9991 18.8052 12.9433 19.0029 12.997L24.5286 14.4754C24.6763 14.5141 24.8025 14.6102 24.8788 14.7423C24.9554 14.8745 24.9759 15.0318 24.9355 15.1793L24.9325 15.1758ZM25.8206 11.8635C25.7816 12.0101 25.6855 12.1349 25.5544 12.2107C25.4232 12.2865 25.2671 12.307 25.1206 12.2677L16.9954 10.0923C16.6905 10.0106 16.5096 9.69708 16.5913 9.39214C16.6731 9.08739 16.9864 8.90649 17.2913 8.98835L25.4195 11.1669C25.7242 11.2488 25.9048 11.5623 25.823 11.8671L25.8206 11.8635Z" fill="white"/>
<path d="M31.9808 22.5715L29.3905 12.917L26.2344 24.7022L31.5791 23.2732C31.7255 23.2338 31.85 23.1373 31.9254 23.0056C32.0006 22.8741 32.0207 22.718 31.9808 22.5715Z" fill="white"/>
</svg>


