<svg width="32" height="32" viewBox="0 0 32 32" fill="none" xmlns="http://www.w3.org/2000/svg">
<path d="M16.1636 16.1676L16.1645 16.1654L15.2028 13.2808L13.2783 15.2058L16.1636 16.1676Z" fill="#CCCCCC"/>
<path d="M2.52344 4.94694L4.94772 2.52246L5.75575 3.33069L3.33147 5.75497L2.52344 4.94694Z" fill="#CCCCCC"/>
<path d="M5.75522 4.94743L7.37167 6.56378C7.51621 6.70795 7.57266 6.91874 7.51972 7.11604C7.46699 7.31335 7.31269 7.46748 7.11542 7.52042C6.91814 7.57317 6.70759 7.51671 6.56306 7.37254L4.9466 5.75619L4.13916 6.56378L12.2204 14.6471L13.0291 13.8383L8.18029 8.98869C7.96368 8.76423 7.967 8.4081 8.18732 8.18755C8.40764 7.967 8.7641 7.96387 8.98852 8.18052L13.8365 13.0305L14.6445 12.2226L6.56306 4.13867L5.75522 4.94743Z" fill="#CCCCCC"/>
<path d="M1.71435 4.13896L4.13922 1.71448L2.92708 0.502534C2.49425 0.069123 1.86279 -0.100022 1.27137 0.0583805C0.679554 0.216588 0.217236 0.67871 0.058638 1.27033C-0.100155 1.86195 0.0687946 2.49321 0.50201 2.92643L1.71435 4.13896Z" fill="#CCCCCC"/>
<path d="M26.6942 2.83963C26.6557 2.69197 26.5594 2.56599 26.4274 2.48962C26.2954 2.41345 26.1381 2.39314 25.9909 2.43318L17.6992 4.65726L27.9126 7.39269L26.6942 2.83963Z" fill="#CCCCCC"/>
<path d="M28.7188 8.7926L7.02055 2.97949L15.8571 11.818C15.9153 11.8772 15.9597 11.9485 15.987 12.0271C15.987 12.0321 15.9939 12.0355 15.9956 12.0407L17.2527 15.806C17.2824 15.8988 17.2999 15.9949 17.3052 16.0918L23.6484 17.795C23.9531 17.8771 24.1339 18.1906 24.0519 18.4956C23.9703 18.8003 23.6568 18.9812 23.3517 18.8992L16.7757 17.1328C16.5945 17.249 16.3839 17.311 16.1687 17.3115C16.045 17.3121 15.9216 17.293 15.8042 17.2543L12.04 15.997C12.035 15.997 12.032 15.9906 12.0268 15.989C11.948 15.9619 11.8762 15.9177 11.8166 15.8593L4.52498 8.56638L0.0266065 25.364C-0.013043 25.5105 0.00746534 25.6672 0.083444 25.7986C0.159423 25.9301 0.284426 26.026 0.431305 26.0651L22.5089 31.9796C22.6554 32.0193 22.812 31.9987 22.9433 31.9228C23.0749 31.8468 23.1708 31.7217 23.2099 31.575L29.1233 9.49353C29.1626 9.34682 29.1421 9.19054 29.0663 9.05906C28.9903 8.92779 28.8653 8.83167 28.7188 8.7926ZM6.26663 20.8257C6.22756 20.9723 6.13166 21.0971 6.0006 21.1731C5.86915 21.2487 5.71329 21.2692 5.5668 21.2299L3.90972 20.7865C3.60483 20.7046 3.42397 20.3911 3.50561 20.0863C3.58745 19.7814 3.90074 19.6005 4.20563 19.6823L5.8629 20.1258C6.0092 20.1651 6.1342 20.2608 6.20979 20.3921C6.28557 20.5235 6.30608 20.6796 6.26663 20.8257ZM7.15415 17.5139C7.11509 17.6604 7.01919 17.7853 6.88813 17.8609C6.75668 17.9367 6.60062 17.9572 6.45413 17.9181L4.79725 17.4739C4.49216 17.392 4.3113 17.0783 4.39333 16.7735C4.47517 16.4686 4.78885 16.2879 5.09355 16.3696L6.75082 16.8138C6.89731 16.853 7.02212 16.9492 7.0977 17.0804C7.17349 17.2119 7.1938 17.3674 7.15415 17.5139ZM22.2741 25.1153C22.2348 25.2618 22.1388 25.3864 22.0077 25.4624C21.8764 25.5382 21.7204 25.5587 21.5739 25.5193L8.87881 22.118C8.68154 22.0653 8.52782 21.9113 8.4747 21.714C8.42196 21.5167 8.47841 21.3061 8.62275 21.1617C8.76728 21.0176 8.97764 20.9611 9.17491 21.0139L21.87 24.4163C22.1745 24.4982 22.3554 24.8105 22.2741 25.1153ZM23.1612 21.8004C23.1222 21.9469 23.0263 22.0717 22.8952 22.1473C22.7638 22.2233 22.6079 22.2438 22.4614 22.2045L9.76633 18.8033C9.46144 18.7214 9.28077 18.4081 9.36222 18.1031C9.44406 17.7982 9.75755 17.6173 10.0624 17.6989L22.7575 21.1008C22.9042 21.1401 23.0294 21.2364 23.1054 21.3682C23.1814 21.4997 23.2013 21.6566 23.1612 21.8033V21.8004ZM24.9328 15.1758C24.866 15.4254 24.6398 15.5989 24.3816 15.5993C24.3316 15.5993 24.2818 15.5928 24.2333 15.5797L18.7076 14.1011C18.5095 14.0492 18.3543 13.895 18.3011 13.6971C18.2476 13.4996 18.3043 13.2884 18.4494 13.1437C18.5941 12.9991 18.8055 12.9433 19.0031 12.997L24.5289 14.4754C24.6765 14.5141 24.8027 14.6102 24.8791 14.7423C24.9556 14.8745 24.9761 15.0318 24.9357 15.1793L24.9328 15.1758ZM25.8209 11.8635C25.7818 12.0101 25.6857 12.1349 25.5547 12.2107C25.4234 12.2865 25.2674 12.307 25.1209 12.2677L16.9956 10.0923C16.6907 10.0106 16.5099 9.69708 16.5915 9.39214C16.6734 9.08739 16.9867 8.90649 17.2915 8.98835L25.4197 11.1669C25.7244 11.2488 25.9051 11.5623 25.8232 11.8671L25.8209 11.8635Z" fill="#CCCCCC"/>
<path d="M31.9808 22.5715L29.3905 12.917L26.2344 24.7022L31.5791 23.2732C31.7255 23.2338 31.85 23.1373 31.9254 23.0056C32.0006 22.8741 32.0207 22.718 31.9808 22.5715Z" fill="#CCCCCC"/>
</svg>
