<svg width="27" height="32" viewBox="0 0 27 32" fill="none" xmlns="http://www.w3.org/2000/svg">
<path d="M11.741 19.3488V31.2558H0C0 28.0979 1.237 25.0693 3.43887 22.8363C5.64075 20.6033 8.62713 19.3488 11.741 19.3488ZM11.741 17.8605C6.87585 17.8605 2.93526 13.8642 2.93526 8.93023C2.93526 3.99628 6.87585 0 11.741 0C16.6062 0 20.5468 3.99628 20.5468 8.93023C20.5468 13.8642 16.6062 17.8605 11.741 17.8605ZM15.5495 26.5109C15.3635 25.7167 15.3635 24.8894 15.5495 24.0953L14.0937 23.2424L15.5613 20.6646L17.0172 21.5174C17.6015 20.9561 18.3079 20.5421 19.0792 20.3088V18.6047H22.0145V20.3088C22.7952 20.544 23.4997 20.9637 24.0765 21.5174L25.5324 20.6646L27 23.2424L25.5441 24.0953C25.73 24.8889 25.73 25.7157 25.5441 26.5094L27 27.3622L25.5324 29.9401L24.0765 29.0873C23.4921 29.6485 22.7858 30.0626 22.0145 30.2958V32H19.0792V30.2958C18.3079 30.0626 17.6015 29.6485 17.0172 29.0873L15.5613 29.9401L14.0937 27.3622L15.5495 26.5109ZM20.5468 23.814C20.1576 23.814 19.7843 23.9708 19.5091 24.2499C19.2338 24.529 19.0792 24.9076 19.0792 25.3023C19.0792 25.6971 19.2338 26.0756 19.5091 26.3548C19.7843 26.6339 20.1576 26.7907 20.5468 26.7907C20.9361 26.7907 21.3094 26.6339 21.5846 26.3548C21.8598 26.0756 22.0145 25.6971 22.0145 25.3023C22.0145 24.9076 21.8598 24.529 21.5846 24.2499C21.3094 23.9708 20.9361 23.814 20.5468 23.814Z" fill="white"/>
</svg>
